<svg version="1.1" id="Layer_1" xmlns="http://www.w3.org/2000/svg" xmlns:xlink="http://www.w3.org/1999/xlink" x="0px" y="0px"
	 width="100%" viewBox="0 0 885 205" enable-background="new 0 0 885 205" xml:space="preserve">
<path fill="#FFFFFF" opacity="1.000000" stroke="none" 
	d="
M615.000000,206.000000 
	C557.979126,206.000000 500.958221,206.000000 443.571594,205.642578 
	C443.827942,204.673019 444.629272,204.163116 445.045380,203.433502 
	C451.795105,191.597672 448.669769,178.739243 448.487427,166.277069 
	C448.414551,161.293442 446.283813,156.332047 445.028320,151.376114 
	C444.046356,147.499939 441.287262,145.084442 437.572205,146.225006 
	C435.058014,146.996872 432.193695,149.517059 431.272369,151.935760 
	C429.754150,155.921539 429.172028,160.451370 429.115417,164.763962 
	C429.022522,171.838821 429.788361,178.920258 429.966522,186.004608 
	C430.154205,193.469559 431.841339,200.323639 437.000000,206.000000 
	C337.979095,206.000000 238.958206,206.000000 139.559967,205.643311 
	C144.667206,198.539337 143.752014,190.985687 141.108490,183.722839 
	C138.718674,177.157028 134.898224,171.119324 132.382965,164.588989 
	C130.910782,160.766754 130.578506,156.455109 130.141464,152.320480 
	C130.034134,151.305115 131.523605,150.120956 132.278961,149.014404 
	C133.125397,149.822998 134.400436,150.482956 134.741577,151.466766 
	C135.995483,155.082901 136.890320,158.821762 138.026398,162.481506 
	C138.431549,163.786652 139.138733,164.998032 139.708054,166.252213 
	C140.072876,166.123672 140.437714,165.995148 140.802536,165.866623 
	C140.436020,159.719147 140.069489,153.571686 139.705078,147.424713 
	C138.197342,146.961761 136.713455,146.243683 135.172363,146.086502 
	C131.688797,145.731216 128.175522,145.745773 127.029610,150.131592 
	C124.793243,158.690948 126.662781,166.501785 130.569153,174.336700 
	C133.952805,181.123230 136.545120,188.372147 138.738754,195.642502 
	C139.389420,197.799011 137.505585,200.720230 136.571747,204.043167 
	C129.771042,197.752808 130.547531,189.999481 127.673813,183.336304 
	C127.673813,190.443802 127.673813,197.551300 127.673813,204.435410 
	C128.906799,204.881317 130.453400,205.440659 132.000000,206.000000 
	C126.311958,206.000000 120.623917,206.000000 114.576637,205.622849 
	C116.598206,202.001038 116.423035,198.583496 114.460999,194.970276 
	C114.184181,196.536011 113.907372,198.101730 113.471237,200.568604 
	C112.738312,198.913727 112.227936,198.116394 112.026695,197.247452 
	C110.975327,192.707764 110.182472,188.100494 108.951286,183.612320 
	C107.735260,179.179428 106.369751,175.763718 109.506348,170.609299 
	C112.089134,166.364944 110.206459,159.331207 110.039658,153.541260 
	C110.002472,152.250397 109.065094,150.831039 108.198624,149.744919 
	C104.197639,144.729660 98.887299,147.867950 94.198471,146.973267 
	C98.371765,166.457550 97.028313,185.473648 96.920677,204.562500 
	C99.032028,204.562500 101.975929,204.562500 103.453262,204.562500 
	C102.792053,195.025894 102.154114,185.825058 101.516182,176.624222 
	C102.124802,176.543457 102.733421,176.462692 103.342041,176.381927 
	C104.228012,181.027985 104.989029,185.702316 106.032967,190.312607 
	C107.223770,195.571533 108.666656,200.773361 110.000000,206.000000 
	C87.979103,206.000000 65.958214,206.000000 43.468388,205.566681 
	C42.666306,202.070877 42.107979,199.012985 42.045235,195.944962 
	C41.898815,188.785492 42.627899,181.549011 41.827164,174.476776 
	C40.789135,165.308701 40.223507,156.316315 42.799061,147.311218 
	C40.217129,147.311218 37.675423,147.311218 34.923645,147.311218 
	C39.845676,158.191650 38.929428,169.333023 38.245037,180.500473 
	C34.967445,169.361649 31.689852,158.222839 28.474514,147.295593 
	C26.568718,147.295593 24.818827,147.295593 23.074251,147.295593 
	C27.475267,166.414917 25.611616,185.460632 25.994301,204.557999 
	C27.718039,204.557999 30.324501,204.557999 32.316475,204.557999 
	C27.897249,192.008835 28.292786,179.255966 28.286673,166.527557 
	C29.746061,169.909805 30.965433,173.326599 31.946957,176.810394 
	C34.684055,186.525391 37.322563,196.268188 40.000000,206.000000 
	C32.645748,206.000000 25.291496,206.000000 17.559977,205.643250 
	C18.455139,201.405884 20.741898,197.542801 20.809238,193.641403 
	C21.008852,182.076706 20.221437,170.498459 20.062574,158.922165 
	C20.009199,155.032867 20.684507,151.133545 21.013252,147.392548 
	C19.094648,147.392548 16.586798,147.392548 14.894182,147.392548 
	C15.622721,152.411514 16.677628,157.136536 16.925961,161.903580 
	C17.493576,172.799667 17.714605,183.715286 17.950527,194.625687 
	C17.987751,196.347092 17.637375,198.200531 16.952126,199.768219 
	C16.530910,200.731873 15.165649,201.778305 14.163773,201.842468 
	C13.297594,201.897934 11.700202,200.745544 11.537501,199.910507 
	C10.518358,194.679962 9.307526,189.407623 9.108325,184.113449 
	C8.732962,174.137390 8.927531,164.136169 9.059668,154.147736 
	C9.086885,152.090271 9.877439,150.042923 10.420631,147.502258 
	C7.654966,147.502258 4.866260,147.502258 2.020730,147.502258 
	C2.694937,151.277695 3.742593,154.910721 3.925147,158.586716 
	C4.466363,169.484833 4.790020,180.398087 4.948378,191.309052 
	C5.028687,196.842346 6.077113,201.870621 10.000000,206.000000 
	C7.014994,206.000000 4.029987,206.000000 1.000000,206.000000 
	C1.000000,179.979126 1.000000,153.958221 1.468657,127.468658 
	C10.895970,127.000000 19.854628,127.000000 29.749855,127.000000 
	C28.889639,124.896729 28.486757,123.331970 27.660374,122.037590 
	C26.622890,120.412521 24.552488,119.176437 24.137632,117.477142 
	C23.069412,113.101570 22.182985,108.573090 22.091969,104.088081 
	C21.830925,91.224846 22.000000,78.352867 22.000000,65.119385 
	C26.641605,64.198975 31.100040,66.066574 33.209251,70.952194 
	C35.072132,75.267227 35.543015,80.183212 36.673126,85.025002 
	C38.031277,84.957565 39.425205,84.888351 40.743965,84.822876 
	C40.743965,68.984322 40.743965,53.565781 40.743965,37.946888 
	C39.045887,38.045147 37.615814,38.127899 36.236057,38.207741 
	C34.749130,52.346165 31.924532,59.341396 21.252640,57.495918 
	C21.251019,41.426220 21.251019,25.357162 21.251019,9.000407 
	C26.461056,9.000407 31.443251,8.771478 36.377594,9.156239 
	C37.662426,9.256424 39.537006,11.081518 39.884068,12.436294 
	C42.436897,22.401299 44.679115,32.446087 47.001404,42.469856 
	C48.119003,47.293797 48.101578,47.297832 52.696453,46.395264 
	C52.696453,31.973524 52.696453,17.576988 52.696453,3.000000 
	C35.262367,3.000000 18.131184,3.000000 1.000000,3.000000 
	C1.330130,2.333333 1.541204,1.215973 2.014419,1.090968 
	C3.101491,0.803808 4.316246,1.000000 5.479175,1.000000 
	C48.673679,1.000000 91.868179,1.000000 135.430588,1.354811 
	C128.625793,3.711269 124.599327,8.995998 123.113792,15.719493 
	C118.871742,34.918964 124.381943,51.488682 137.395752,66.012535 
	C143.969162,73.348671 150.498398,80.851730 154.044067,90.326126 
	C157.433533,99.383148 158.911087,108.551834 154.658997,117.699486 
	C151.517593,124.457672 143.112015,125.283478 138.786270,119.126801 
	C136.047394,115.228653 133.619186,110.884888 132.131821,106.384026 
	C129.389740,98.086334 127.442818,89.525871 125.164558,81.074883 
	C123.848557,81.526428 122.516014,81.983643 121.219864,82.428375 
	C121.219864,97.632446 121.219864,112.744621 121.219864,128.114288 
	C122.915764,127.940453 125.362373,128.239685 125.664291,127.570831 
	C127.877495,122.667732 130.768127,125.401382 133.299469,126.764778 
	C139.323364,130.009293 145.936249,129.704529 152.051331,128.611053 
	C155.999527,127.905052 160.489380,124.864304 162.842468,121.532295 
	C172.917191,107.266281 171.304138,91.578941 164.174866,77.180199 
	C158.944916,66.617416 150.613602,57.558121 143.432831,48.002857 
	C136.943832,39.368141 132.614807,30.100574 132.974045,19.021847 
	C133.171036,12.946437 135.660614,8.271867 139.644104,7.127126 
	C144.053619,5.859956 148.196655,7.806703 150.873871,14.214247 
	C154.863358,23.762571 157.917206,33.701828 161.574173,44.055180 
	C163.635239,44.504402 165.080276,43.482456 165.044342,40.039848 
	C164.926193,28.714119 165.047821,17.385910 164.934982,6.060072 
	C164.921921,4.748497 164.016434,3.445814 163.524719,2.139006 
	C162.235733,2.689776 160.984299,3.375095 159.645874,3.748726 
	C158.576096,4.047359 157.288055,4.311126 156.293900,3.986678 
	C153.802994,3.173743 151.423935,2.018146 149.000000,1.000001 
	C201.354233,1.000000 253.708450,1.000000 306.425659,1.359302 
	C303.852142,3.314590 300.539215,4.467122 298.045105,6.584225 
	C287.885498,15.208166 285.506470,27.508671 284.193481,39.709732 
	C282.958466,51.186115 283.292725,62.834763 283.011047,74.409431 
	C282.707489,86.884560 284.604126,99.073906 289.098755,110.682343 
	C292.636200,119.818588 298.613617,127.265549 308.899200,128.865479 
	C319.881104,130.573700 329.079651,127.314529 335.412933,117.248108 
	C342.311432,106.283356 344.315979,93.960281 344.753815,81.645309 
	C345.315277,65.855431 346.170044,49.944290 343.056274,34.192410 
	C340.250854,20.000652 335.866089,7.076768 321.000000,1.000000 
	C376.687561,1.000000 432.375122,1.000000 488.430573,1.354821 
	C481.625885,3.711546 477.599426,8.995999 476.113708,15.719805 
	C471.871429,34.919491 477.382507,51.488873 490.395966,66.012764 
	C496.969238,73.348969 503.498413,80.852013 507.044220,90.326340 
	C510.433868,99.383423 511.910828,108.552101 507.658844,117.699677 
	C504.517365,124.458107 496.112000,125.283691 491.786102,119.126633 
	C489.047241,115.228470 486.619141,110.884659 485.131775,106.383797 
	C482.389740,98.086151 480.442810,89.525749 478.167786,81.073730 
	C476.842102,81.528587 475.513184,81.984558 474.219910,82.428314 
	C474.219910,97.632629 474.219910,112.744797 474.219910,128.114380 
	C475.915802,127.940445 478.362244,128.239609 478.664276,127.570633 
	C480.877716,122.667763 483.768250,125.401520 486.299591,126.764877 
	C492.323517,130.009293 498.936401,129.704544 505.051483,128.610992 
	C508.999634,127.904953 513.489441,124.864182 515.842468,121.532181 
	C525.917236,107.266144 524.304077,91.578850 517.174805,77.180130 
	C511.944824,66.617363 503.613586,57.558033 496.432800,48.002781 
	C489.943817,39.368065 485.614838,30.100521 485.974060,19.021803 
	C486.171051,12.946382 488.660614,8.271827 492.644135,7.127099 
	C497.053711,5.859962 501.196594,7.806702 503.873840,14.214333 
	C507.863312,23.762672 510.917175,33.701900 514.574097,44.055161 
	C516.635315,44.504372 518.080322,43.482441 518.044373,40.039822 
	C517.926147,28.714100 518.047852,17.385900 517.934998,6.060059 
	C517.921875,4.748477 517.016479,3.445783 516.524719,2.138971 
	C515.235718,2.689752 513.984314,3.375074 512.645874,3.748719 
	C511.576111,4.047366 510.288055,4.311141 509.293915,3.986691 
	C506.803009,3.173765 504.423920,2.018149 502.000000,0.999999 
	C519.354248,1.000000 536.708435,1.000000 554.425659,1.359290 
	C551.852234,3.314494 548.539307,4.466928 546.045288,6.583989 
	C535.885803,15.207944 533.506348,27.508301 532.193420,39.709400 
	C530.958435,51.185814 531.292664,62.834484 531.010986,74.409180 
	C530.707397,86.884300 532.604065,99.073647 537.098633,110.682114 
	C540.636047,119.818466 546.613464,127.265511 556.899109,128.865479 
	C567.880920,130.573715 577.079529,127.314690 583.412842,117.248199 
	C590.311340,106.283447 592.315979,93.960381 592.753784,81.645378 
	C593.315186,65.855453 594.170166,49.944267 591.056335,34.192364 
	C588.250916,20.000656 583.866089,7.076751 569.000000,1.000000 
	C587.687561,1.000000 606.375122,1.000000 625.436096,1.349898 
	C620.704407,3.510687 617.041138,6.933389 613.906006,11.337593 
	C605.730774,22.821835 603.846802,36.165298 603.205750,49.521309 
	C602.587891,62.392159 603.378479,75.360260 604.086914,88.256157 
	C604.704529,99.498718 607.967590,110.158562 614.275452,119.561714 
	C620.341797,128.604935 629.804321,130.609756 639.583740,128.755646 
	C646.902039,127.368164 650.941467,121.144791 652.970581,114.121841 
	C654.840454,107.650658 656.635864,101.127502 657.885254,94.517822 
	C658.775513,89.807777 658.706787,84.916443 659.061096,80.172600 
	C656.332458,80.172600 654.374695,80.172600 653.320068,80.172600 
	C651.163269,90.950020 649.484924,101.488853 646.819580,111.771858 
	C645.430298,117.131981 641.810669,121.649506 635.788635,122.944214 
	C630.825256,124.011322 627.721252,120.775658 625.031311,117.381882 
	C623.674622,115.670166 622.531006,113.522346 622.087524,111.404907 
	C620.831726,105.408363 619.646423,99.358711 619.057373,93.269600 
	C618.108704,83.463112 617.405945,73.616257 617.095459,63.770817 
	C616.909363,57.870296 617.765930,51.943584 617.978088,46.022346 
	C618.351624,35.596786 619.501099,25.321903 622.990479,15.406379 
	C624.829712,10.180021 629.405151,5.909105 633.507263,7.251577 
	C636.504517,8.232490 640.028931,11.045570 641.095154,13.878664 
	C645.361450,25.214939 648.759521,36.877960 652.589478,48.763695 
	C652.916260,48.763695 654.317200,48.763695 655.999634,48.763695 
	C655.999634,34.221401 655.966248,19.912266 656.022461,5.603482 
	C656.037109,1.882943 653.613342,0.834764 651.271912,2.491812 
	C646.994690,5.518791 644.185852,2.989115 641.000000,1.000000 
	C722.586670,1.000000 804.173401,1.000000 886.000000,1.000000 
	C886.000000,68.020706 886.000000,135.041687 885.628906,202.413239 
	C883.505127,194.432175 881.625244,186.124817 880.032410,177.762726 
	C878.082275,167.524551 876.372620,157.240585 874.498962,146.636536 
	C873.403442,147.144775 872.174133,147.389786 872.123657,147.785126 
	C869.708252,166.730789 867.394836,185.689453 865.073486,204.617065 
	C867.618774,204.617065 869.784363,204.617065 871.250000,204.617065 
	C870.691467,198.256531 870.160095,192.205505 869.643250,186.319778 
	C872.746216,186.319778 874.828857,186.319778 877.447510,186.319778 
	C877.447510,192.604309 877.447510,198.569138 877.447510,205.000000 
	C880.089600,205.000000 883.044800,205.000000 886.000000,205.000000 
	C885.010925,205.333313 884.022827,205.953568 883.032532,205.957214 
	C866.667664,206.017380 850.302429,206.000000 833.557373,205.645218 
	C833.757874,204.690170 834.426208,203.511414 834.904297,203.584106 
	C837.860107,204.033539 840.773193,204.764618 842.658264,205.175156 
	C840.454834,185.378891 838.560059,166.545212 841.207764,147.262085 
	C838.952454,147.262085 836.055542,147.262085 833.065430,147.262085 
	C837.794067,164.611511 835.216064,182.139496 835.411438,199.547348 
	C835.071899,197.991745 834.732300,196.436142 834.392700,194.880524 
	C834.060730,194.923477 833.728760,194.966415 833.396790,195.009369 
	C833.150330,196.553177 832.903931,198.096985 832.657471,199.640808 
	C830.593323,194.424377 829.393799,189.165543 827.994873,183.960251 
	C826.771301,179.407333 825.259460,175.788589 828.546082,170.478149 
	C831.142029,166.283691 829.208862,159.210938 829.018250,153.425308 
	C828.976013,152.143707 828.000977,150.735870 827.116943,149.665878 
	C823.076660,144.775940 817.859985,147.789062 813.234924,147.052704 
	C817.276550,166.543167 816.161072,185.536026 815.862854,204.763641 
	C817.996765,204.763641 820.904541,204.763641 822.539307,204.763641 
	C821.850647,195.321793 821.169434,185.982224 820.488281,176.642654 
	C821.106628,176.559647 821.724976,176.476654 822.343323,176.393646 
	C823.228882,181.040268 823.988892,185.715347 825.033081,190.326035 
	C826.223145,195.580643 827.666626,200.777847 829.000000,206.000000 
	C821.312439,206.000000 813.624817,206.000000 805.571533,205.642578 
	C805.827942,204.673050 806.629211,204.163101 807.045288,203.433502 
	C813.795105,191.597672 810.669739,178.739243 810.487427,166.277069 
	C810.414551,161.293427 808.283752,156.332016 807.028259,151.376068 
	C806.046265,147.499893 803.287231,145.084427 799.572144,146.224976 
	C797.057983,146.996826 794.193665,149.517059 793.272339,151.935760 
	C791.754150,155.921555 791.172058,160.451385 791.115417,164.763977 
	C791.022522,171.838821 791.788330,178.920258 791.966431,186.004593 
	C792.154236,193.469528 793.841309,200.323639 799.000000,206.000000 
	C768.312439,206.000000 737.624878,206.000000 706.577393,205.622864 
	C708.598267,202.001053 708.423096,198.583496 706.458252,194.986328 
	C706.182739,196.544601 705.907227,198.102859 705.471191,200.568512 
	C704.740417,198.918320 704.228577,198.118729 704.026672,197.247330 
	C702.975098,192.707703 702.182678,188.100327 700.951294,183.612228 
	C699.734985,179.179260 698.370178,175.763580 701.506348,170.609238 
	C704.089050,166.364716 702.206421,159.331161 702.039612,153.541214 
	C702.002441,152.250336 701.065002,150.831024 700.198486,149.744888 
	C696.197510,144.729752 690.887268,147.867920 686.198242,146.973236 
	C690.372253,166.457581 689.027710,185.473694 688.920837,204.562469 
	C691.032043,204.562469 693.975952,204.562469 695.453491,204.562469 
	C694.792175,195.025864 694.154175,185.825043 693.516174,176.624222 
	C694.124817,176.543457 694.733398,176.462692 695.342041,176.381912 
	C696.228027,181.027969 696.989075,185.702316 698.033020,190.312607 
	C699.223816,195.571518 700.666687,200.773361 702.000000,206.000000 
	C689.979126,206.000000 677.958191,206.000000 665.468384,205.566681 
	C664.666321,202.070862 664.107971,199.012985 664.045227,195.944946 
	C663.898743,188.785477 664.627869,181.548996 663.827148,174.476761 
	C662.789124,165.308701 662.223450,156.316284 664.799072,147.311218 
	C662.217102,147.311218 659.675415,147.311218 656.923523,147.311218 
	C661.845886,158.191635 660.929321,169.333038 660.245178,180.501068 
	C656.967590,169.362045 653.689941,158.223022 650.387695,147.000305 
	C649.498230,147.000305 648.669739,146.958954 647.847229,147.011230 
	C646.910461,147.070770 645.979004,147.213821 645.079041,147.316711 
	C649.475403,166.414825 647.611572,185.460556 647.994263,204.558044 
	C649.707703,204.558044 652.316040,204.558044 654.301941,204.558044 
	C649.926575,192.005386 650.250549,179.261032 650.291138,166.526993 
	C651.746094,169.909775 652.965454,173.326569 653.946960,176.810379 
	C656.684021,186.525391 659.322571,196.268173 662.000000,206.000000 
	C648.645752,206.000000 635.291565,206.000000 621.564209,205.638641 
	C625.046082,200.097412 626.458191,187.511292 623.530090,182.845215 
	C623.041565,186.551697 622.408752,190.032562 622.167725,193.540359 
	C621.908020,197.319366 621.988892,201.111282 617.843445,203.048782 
	C610.628540,196.267853 609.525330,154.381012 617.347412,148.244675 
	C619.221619,155.495178 620.970276,162.259933 622.718933,169.024689 
	C623.145935,168.988037 623.572998,168.951385 624.000000,168.914734 
	C624.000000,163.757767 623.787231,158.589447 624.061707,153.447128 
	C624.319458,148.618683 621.842773,146.707153 617.560303,145.985855 
	C612.787720,145.182053 610.197815,148.085754 609.226196,151.827179 
	C607.933044,156.806900 607.236328,162.049332 607.115784,167.198395 
	C606.966003,173.594238 607.677856,180.009460 607.997070,186.417343 
	C608.357544,193.654114 609.983337,200.431564 615.000000,206.000000 
M220.998413,16.833309 
	C220.998413,30.826862 220.998413,44.820415 220.998413,58.695320 
	C212.980347,58.695320 204.577271,58.695320 197.000916,58.695320 
	C197.000916,44.665928 196.813507,30.940844 197.147858,17.228485 
	C197.220932,14.231920 198.386612,9.607808 200.404327,8.679783 
	C203.898773,7.072556 202.826691,5.385931 202.844589,3.246210 
	C193.625641,3.246210 184.853851,3.246210 175.538239,3.246210 
	C176.073868,5.057775 176.281479,7.628772 176.962769,7.761111 
	C181.416214,8.626188 181.619400,12.747243 181.780396,15.326666 
	C182.849350,32.453278 183.487396,49.612740 183.917648,66.770241 
	C184.082306,73.336449 183.286148,79.923630 183.011337,86.504738 
	C182.632507,95.576790 182.549362,104.668465 181.867233,113.716125 
	C181.662567,116.430443 180.454285,120.742523 178.706711,121.324951 
	C174.855682,122.608452 176.259979,124.609581 176.079971,126.766403 
	C185.323700,126.766403 194.095749,126.766403 203.755936,126.766403 
	C190.841690,107.075233 198.157700,85.661537 195.697525,65.324539 
	C205.060211,65.324539 213.464279,65.324539 220.998947,65.324539 
	C220.998947,81.044998 221.194702,96.442345 220.844070,111.827232 
	C220.768265,115.153419 218.910233,118.515427 217.511353,121.702133 
	C216.831375,123.251167 215.316620,124.433754 214.179764,125.782227 
	C214.561966,126.128777 214.944168,126.475319 215.326355,126.821861 
	C224.098251,126.821861 232.870132,126.821861 242.452866,126.821861 
	C241.859726,124.998344 241.620682,123.365829 240.833923,122.064453 
	C239.772217,120.308273 237.494781,118.965340 237.135834,117.166359 
	C236.059616,111.772850 235.180771,106.251724 235.091217,100.766273 
	C234.833008,84.950531 234.873581,69.126511 235.040741,53.308323 
	C235.170105,41.066029 235.476990,28.817280 236.142349,16.595215 
	C236.296417,13.765042 238.054108,10.940006 239.417908,8.289634 
	C240.197311,6.774968 241.670715,5.617418 242.831665,4.299079 
	C242.462585,3.928901 242.093506,3.558724 241.724426,3.188546 
	C232.951431,3.188546 224.178421,3.188546 215.038589,3.188546 
	C215.114929,4.730794 214.996140,7.339987 215.283157,7.385418 
	C220.414871,8.197716 219.292984,12.999837 220.998413,16.833309 
M402.000519,84.537476 
	C391.301392,57.416180 380.602264,30.294878 369.902466,3.171953 
	C364.267059,3.171953 358.807068,3.171953 352.851562,3.171953 
	C353.134491,4.892081 353.050934,7.536089 353.685547,7.721454 
	C357.293884,8.775425 357.519379,11.795450 357.932220,14.460464 
	C358.827637,20.240438 359.834259,26.074266 359.908325,31.897360 
	C360.151978,51.051498 360.209961,70.213959 359.909851,89.366501 
	C359.763794,98.688004 358.742462,108.001442 357.918152,117.300880 
	C357.786621,118.785118 356.787903,121.267387 355.875916,121.420815 
	C352.002899,122.072334 353.114532,124.464340 353.045898,126.796066 
	C361.236877,126.796066 369.013885,126.796066 377.637512,126.796066 
	C376.887451,124.913147 376.543182,123.299179 375.676880,122.046097 
	C374.301819,120.057121 371.669006,118.526268 371.166168,116.420128 
	C369.408447,109.058044 367.389374,101.558281 367.185272,94.064102 
	C366.644806,74.219215 367.002014,54.349892 367.002014,35.657379 
	C378.330933,64.388214 390.283600,94.346848 401.855957,124.451668 
	C403.487793,128.696823 405.733185,128.162079 410.000000,127.582344 
	C410.000000,100.391144 409.916809,73.332878 410.045898,46.275627 
	C410.090027,37.030056 410.383331,27.763577 411.144562,18.554741 
	C411.435577,15.034231 413.192352,11.580023 414.603271,8.231313 
	C415.256805,6.680152 416.681671,5.453967 418.445953,3.200081 
	C408.775787,3.200081 400.999634,3.200081 392.380310,3.200081 
	C393.107361,5.059326 393.438904,6.691603 394.309021,7.952122 
	C395.681854,9.940857 398.305603,11.456656 398.835114,13.565523 
	C400.598206,20.587633 402.592407,27.755821 402.815247,34.920353 
	C403.370453,52.771156 402.998047,70.650803 402.998047,87.357948 
	C403.084412,87.539078 402.561707,86.442871 402.000519,84.537476 
M699.006775,125.609886 
	C700.356445,126.073257 701.702881,126.927559 703.056335,126.938972 
	C715.383423,127.042915 727.711670,127.000000 740.039612,127.000000 
	C744.301819,127.000000 748.564087,127.000000 752.741699,127.000000 
	C752.741699,111.301407 752.741699,96.206032 752.741699,80.929573 
	C751.024597,81.038971 749.577209,81.131187 748.364380,81.208458 
	C745.117065,94.621964 741.946106,107.720184 738.794312,120.739136 
	C732.103027,120.739136 725.683960,120.739136 719.215454,120.739136 
	C719.215454,102.050720 719.215454,83.623947 719.215454,63.801037 
	C722.883972,65.395798 727.166687,65.881882 728.567505,68.148804 
	C731.616272,73.082703 733.196045,78.924400 735.522095,84.760994 
	C735.911499,84.760994 737.315125,84.760994 738.776367,84.760994 
	C738.776367,69.096306 738.776367,53.670494 738.776367,38.218735 
	C737.123474,38.218735 735.705688,38.218735 734.323547,38.218735 
	C732.248718,52.053337 731.727051,58.737030 719.227295,57.572708 
	C719.227295,41.498180 719.227295,25.417530 719.227295,9.000020 
	C724.075134,9.000020 728.712524,9.174852 733.329041,8.939064 
	C736.449951,8.779665 737.460754,10.042040 738.081543,12.976223 
	C740.212219,23.047037 742.664612,33.050430 745.059082,43.064049 
	C745.381653,44.413097 746.074402,45.673653 746.547058,46.853745 
	C748.039795,46.853745 749.327026,46.853745 750.649658,46.853745 
	C750.649658,32.166504 750.649658,17.627172 750.649658,3.151694 
	C733.334656,3.151694 716.370300,3.151694 698.604309,3.151694 
	C699.147705,4.957921 699.333313,6.620927 700.117249,7.923923 
	C701.172729,9.678270 703.387512,10.970801 703.867493,12.788305 
	C704.974731,16.980850 705.857971,21.364225 705.909119,25.681110 
	C706.124084,43.837662 706.000000,61.998230 706.000000,80.157326 
	C706.000000,88.487007 706.717468,96.899879 705.764465,105.119057 
	C705.051025,111.271912 707.205200,119.126038 699.148621,122.803177 
	C698.867065,122.931648 699.039673,124.055061 699.006775,125.609886 
M66.030434,98.888817 
	C66.752800,94.969475 67.475159,91.050133 68.221603,87.000114 
	C74.402420,87.000114 80.232666,86.800720 86.030388,87.146584 
	C87.403152,87.228477 89.681435,89.026115 89.817863,90.230034 
	C90.795250,98.854767 91.457214,107.523521 91.890030,116.194725 
	C91.976906,117.935219 90.741875,119.786392 89.954697,121.512833 
	C89.217529,123.129623 88.265984,124.648666 87.071114,126.826057 
	C97.126526,126.826057 105.905762,126.826057 114.977707,126.826057 
	C100.463440,86.539101 95.593010,44.205280 85.177185,3.130864 
	C83.046768,3.130864 80.743294,3.130864 78.342461,3.130864 
	C67.930336,44.224796 62.015987,86.265610 48.660061,126.790817 
	C56.954407,126.790817 64.404968,126.790817 73.406570,126.790817 
	C71.728165,124.276779 70.463768,122.729218 69.585716,120.986946 
	C68.249886,118.336319 66.537773,115.638565 66.151009,112.801910 
	C65.571144,108.549026 66.001419,104.158417 66.030434,98.888817 
M805.997559,21.577419 
	C808.090881,30.308826 810.184204,39.040230 812.281860,47.789680 
	C813.869141,47.789680 815.281921,47.789680 816.768799,47.789680 
	C816.768799,32.829491 816.768799,18.079481 816.768799,3.233643 
	C798.799500,3.233643 781.062256,3.233643 763.205444,3.233643 
	C763.205444,18.227619 763.205444,32.987373 763.205444,47.819077 
	C764.849487,47.819077 766.286804,47.819077 767.790222,47.819077 
	C771.048096,34.785572 774.267639,21.905348 777.449707,9.174883 
	C779.705444,9.174883 781.656067,9.174883 783.999939,9.174883 
	C783.999939,10.306181 784.013000,11.265670 783.998047,12.224723 
	C783.667236,33.475063 783.385925,54.726368 782.978333,75.975243 
	C782.768982,86.891174 782.684204,97.830559 781.822632,108.702248 
	C781.490662,112.891365 779.316711,116.986290 777.669922,120.995956 
	C776.929565,122.798485 775.423584,124.286499 773.629822,126.811287 
	C785.507690,126.811287 795.621399,126.811287 806.569153,126.811287 
	C805.885498,124.965271 805.613892,123.292465 804.732544,122.053162 
	C803.044434,119.679123 799.940063,117.806587 799.335022,115.269989 
	C797.946533,109.448730 797.142639,103.357941 797.096252,97.368866 
	C796.879395,69.373505 796.996948,41.375538 797.008606,13.378503 
	C797.009216,11.938663 797.135864,10.498876 797.200562,9.128105 
	C799.251953,9.128105 800.899170,9.128105 802.591370,9.128105 
	C803.735535,13.063136 804.849243,16.893530 805.997559,21.577419 
M871.965820,34.278904 
	C875.332458,25.989086 878.687927,17.694670 882.074219,9.412895 
	C882.860291,7.490569 883.751648,5.611281 884.833130,3.174787 
	C875.885498,3.174787 868.105957,3.174787 859.503418,3.174787 
	C860.126587,5.000053 860.425476,6.608223 861.192932,7.948008 
	C862.281982,9.849107 864.500427,11.419484 864.831360,13.369617 
	C865.433105,16.915283 865.622620,20.768209 864.882812,24.259508 
	C862.702881,34.545956 859.983826,44.718128 857.475708,54.935020 
	C857.001709,54.885658 856.527710,54.836296 856.053711,54.786934 
	C853.257690,45.941433 849.986633,37.210381 847.819031,28.213461 
	C846.145752,21.268290 841.007019,14.180426 846.912537,6.736059 
	C847.468018,6.035867 846.986633,4.513185 846.986633,3.292858 
	C838.545776,3.292858 830.323853,3.292858 820.656921,3.292858 
	C822.745178,6.974060 824.707031,9.656738 825.887817,12.647755 
	C831.057617,25.743279 835.742432,39.034790 841.107300,52.047398 
	C845.528809,62.772011 848.133850,73.637886 847.033081,85.293945 
	C846.507629,90.858139 846.471619,96.468193 845.960327,102.034180 
	C845.470764,107.363716 844.763916,112.681236 843.901062,117.962944 
	C843.684692,119.287170 842.651733,121.386757 841.739685,121.531998 
	C837.693054,122.176384 839.169189,124.613907 839.158813,126.752823 
	C848.373169,126.752823 857.141357,126.752823 867.396057,126.752823 
	C865.543396,123.930717 863.709106,122.158989 863.125671,120.042473 
	C861.764160,115.102570 860.448547,110.031898 860.128845,104.950356 
	C859.638184,97.152710 860.098999,89.299660 859.960449,81.473595 
	C859.885376,77.226158 858.176453,72.609390 859.339050,68.812851 
	C862.846436,57.359512 867.398987,46.226242 871.965820,34.278904 
M672.000000,36.504246 
	C672.333313,45.916798 672.882935,55.328316 672.928040,64.742249 
	C672.961182,71.654175 672.288391,78.567467 672.010864,85.483391 
	C671.633362,94.891243 671.543152,104.317329 670.867310,113.702301 
	C670.671814,116.417397 669.461426,120.740471 667.717773,121.319481 
	C663.870667,122.596992 665.264893,124.603935 665.068665,126.770630 
	C674.318604,126.770630 683.094177,126.770630 691.869751,126.770630 
	C692.216553,126.359543 692.563416,125.948463 692.910217,125.537376 
	C691.672974,124.250259 690.333252,123.044189 689.230835,121.650414 
	C688.344666,120.530006 687.305420,119.251534 687.096497,117.923271 
	C686.239014,112.470634 685.077515,106.969650 685.100342,101.490913 
	C685.215698,73.752243 685.563416,46.012848 686.135193,18.279995 
	C686.203918,14.943704 687.212585,9.850636 689.394897,8.743275 
	C692.813599,7.008547 691.750854,5.391521 691.910583,3.233162 
	C682.665955,3.233162 673.890015,3.233162 664.234619,3.233162 
	C665.098938,5.151098 665.586914,6.671771 666.419678,7.971523 
	C667.465210,9.603262 669.637512,10.943363 669.854797,12.601811 
	C670.850586,20.199951 671.333191,27.865341 672.000000,36.504246 
M268.000000,94.477470 
	C268.333344,69.071388 268.554413,43.662731 269.136047,18.262344 
	C269.212402,14.927427 270.217438,9.877588 272.414825,8.730697 
	C275.786133,6.971124 274.773224,5.388081 274.888977,3.237811 
	C265.649445,3.237811 256.873322,3.237811 247.564346,3.237811 
	C248.078140,5.040997 248.276825,7.631789 248.938950,7.756207 
	C253.408829,8.596132 253.619278,12.725861 253.780228,15.306409 
	C254.848785,32.438194 255.487259,49.602753 255.917664,66.765373 
	C256.082367,73.333557 255.286179,79.922699 255.011353,86.505783 
	C254.632507,95.580544 254.550079,104.675011 253.866699,113.725243 
	C253.661819,116.438354 252.454071,120.731598 250.693817,121.331451 
	C246.866074,122.635864 248.244492,124.611839 248.096252,126.764595 
	C257.339783,126.764595 266.115692,126.764595 275.243530,126.764595 
	C273.067902,121.867226 270.252289,117.460442 269.205688,112.667381 
	C267.992493,107.111404 268.333618,101.216049 268.000000,94.477470 
M89.000000,179.391754 
	C88.640190,173.916031 88.280380,168.440292 87.920578,162.964569 
	C87.439117,162.965576 86.957657,162.966583 86.476196,162.967590 
	C84.993515,166.041290 87.904594,171.341675 82.193596,172.464401 
	C82.193596,164.916077 82.193596,157.622208 82.193596,150.184158 
	C83.801636,150.184158 85.215431,150.184158 86.436852,150.184158 
	C87.727592,155.979370 88.970528,161.559921 90.213455,167.140457 
	C90.806580,167.046417 91.399696,166.952377 91.992821,166.858337 
	C91.992821,161.140686 92.145973,155.414902 91.843094,149.713333 
	C91.792213,148.755493 89.793289,147.160385 88.652069,147.122070 
	C81.516014,146.882339 74.367912,147.001022 67.068779,147.001022 
	C71.384933,160.774170 67.702888,174.037521 65.930275,187.404434 
	C64.144264,174.066132 62.358250,160.727814 60.547089,147.201660 
	C59.061829,147.201660 56.615505,147.201660 53.892338,147.201660 
	C54.300034,149.001129 54.705074,150.536697 54.991970,152.094009 
	C58.006149,168.455475 60.955391,184.829224 64.078201,201.169830 
	C64.368057,202.686539 65.726440,203.999039 67.250618,206.486725 
	C69.594810,186.392212 71.722954,168.149612 73.851105,149.907028 
	C74.643852,149.948868 75.436600,149.990692 76.229355,150.032532 
	C78.514305,168.155136 78.666801,186.359482 77.691582,204.664368 
	C82.782761,204.664368 88.337204,204.664368 94.432373,204.664368 
	C93.897202,197.183670 93.389015,190.080200 92.880821,182.976730 
	C92.405182,182.999023 91.929535,183.021332 91.453888,183.043625 
	C90.577347,189.370209 89.700798,195.696793 88.851334,201.827911 
	C86.624153,201.827911 85.005852,201.827911 83.195740,201.827911 
	C83.195740,193.268539 83.195740,184.879837 83.195740,176.491119 
	C83.577148,176.353897 83.958557,176.216675 84.339966,176.079453 
	C85.510262,179.407471 86.680557,182.735489 87.850853,186.063522 
	C88.233902,186.021790 88.616951,185.980057 89.000000,185.938324 
	C89.000000,184.071899 89.000000,182.205490 89.000000,179.391754 
M712.999817,174.347168 
	C711.657043,184.521149 710.314270,194.695145 709.000854,204.646362 
	C711.833679,204.646362 713.890747,204.646362 715.265076,204.646362 
	C714.699768,198.306732 714.159485,192.248352 713.629578,186.306274 
	C716.707031,186.306274 718.791260,186.306274 721.433105,186.306274 
	C721.433105,192.591278 721.433105,198.570282 721.433105,204.722351 
	C729.323181,204.722351 737.543762,204.722351 746.092285,204.722351 
	C745.332336,197.310349 747.480164,189.946457 743.486145,183.024673 
	C742.607666,189.305542 741.729187,195.586426 740.870422,201.726517 
	C739.023865,201.726517 737.627991,201.726517 736.000000,201.726517 
	C736.000000,199.311569 736.013672,197.166672 735.997437,195.022003 
	C735.945740,188.208450 736.336365,181.353210 735.713440,174.591705 
	C734.869568,165.431488 734.032043,156.372177 736.718750,147.249084 
	C733.920776,147.249084 731.016846,147.249084 728.068481,147.249084 
	C732.126709,168.896851 732.836548,197.822739 728.808533,203.709259 
	C725.262939,184.265259 721.865173,165.631790 718.467407,146.998322 
	C717.899109,146.918915 717.330872,146.839523 716.762573,146.760132 
	C713.800476,155.309296 714.316589,164.547272 712.999817,174.347168 
M853.279541,205.000000 
	C858.416870,205.765732 860.831421,202.754440 861.970093,198.416061 
	C865.437866,185.204254 864.726318,171.964493 862.024048,158.718948 
	C859.500061,146.346863 854.880798,145.698563 844.221375,147.724854 
	C848.882690,166.502960 846.353210,185.512436 847.075073,205.000000 
	C848.167297,205.000000 850.268555,205.000000 853.279541,205.000000 
M634.000000,194.431839 
	C634.000000,188.438110 634.000000,182.444382 634.000000,176.450653 
	C634.476501,176.360016 634.953003,176.269379 635.429565,176.178741 
	C636.552551,179.458984 637.675537,182.739227 638.798523,186.019470 
	C639.273254,185.959259 639.747986,185.899048 640.222717,185.838837 
	C639.861023,178.231247 639.499329,170.623672 639.137573,163.016083 
	C638.591980,162.981277 638.046326,162.946472 637.500732,162.911667 
	C635.925598,166.003494 639.027100,171.488220 633.300598,172.478470 
	C633.300598,164.917236 633.300598,157.488708 633.300598,149.899536 
	C635.051086,150.041824 636.487793,150.158615 637.512634,150.241928 
	C638.798950,156.362747 639.998718,162.071915 641.198547,167.781097 
	C641.758057,167.755081 642.317566,167.729080 642.877075,167.703079 
	C642.877075,161.374985 642.965271,155.043701 642.736389,148.723892 
	C642.714233,148.113144 640.745178,147.125748 639.647644,147.079437 
	C635.179504,146.890976 630.698792,147.001007 627.088562,147.001007 
	C627.738342,156.832153 628.614929,166.368652 628.930786,175.923660 
	C629.246155,185.463531 629.000000,195.021973 629.000000,204.704437 
	C633.689270,204.704437 639.246460,204.704437 645.412292,204.704437 
	C644.888184,197.240189 644.388062,190.117004 643.888000,182.993805 
	C643.415161,183.004349 642.942322,183.014893 642.469482,183.025436 
	C641.594849,189.326523 640.720154,195.627594 639.826416,202.066605 
	C637.610352,201.951782 635.881714,201.862213 634.000000,201.764709 
	C634.000000,199.379166 634.000000,197.395325 634.000000,194.431839 
M757.000000,166.673447 
	C757.000000,179.337051 757.000000,192.000656 757.000000,204.646744 
	C759.195496,204.646744 762.043457,204.646744 763.620056,204.646744 
	C762.883789,195.114731 762.167358,185.838516 761.450867,176.562317 
	C762.070068,176.406479 762.689331,176.250626 763.308533,176.094788 
	C764.520325,179.084351 765.732056,182.073929 766.943848,185.063492 
	C767.396240,184.971924 767.848633,184.880356 768.301025,184.788803 
	C767.866638,177.520844 767.432190,170.252899 766.997803,162.984955 
	C766.473206,162.992477 765.948669,163.000000 765.424072,163.007538 
	C764.057861,166.208389 766.909912,171.378189 761.219543,172.600571 
	C761.219543,165.101639 761.219543,157.668991 761.219543,150.209763 
	C762.873047,150.209763 764.295898,150.209763 765.675781,150.209763 
	C766.854736,156.230850 767.992798,162.042984 769.179199,168.102097 
	C769.912720,167.468414 770.588806,167.161392 770.598206,166.835175 
	C770.769470,160.876526 770.958984,154.913498 770.832825,148.957993 
	C770.818542,148.285477 768.950745,147.137878 767.902649,147.090485 
	C763.326660,146.883575 758.735962,147.001511 754.601807,147.001511 
	C755.442993,153.565308 756.221497,159.639786 757.000000,166.673447 
M463.003967,166.469833 
	C462.820587,165.279144 462.637207,164.088455 462.453827,162.897766 
	C460.114624,166.266022 462.865875,171.375351 457.243164,172.582825 
	C457.243164,165.061676 457.243164,157.611282 457.243164,149.967163 
	C458.931854,150.050629 460.367126,150.121567 461.659943,150.185471 
	C462.872131,156.278458 464.024750,162.071976 465.259308,168.277359 
	C466.063202,167.323700 466.831665,166.837006 466.841797,166.335052 
	C466.955627,160.676895 467.060028,155.012665 466.862152,149.360718 
	C466.833679,148.547516 465.229492,147.159149 464.301910,147.113831 
	C459.585846,146.883392 454.852448,147.007553 450.546753,147.007553 
	C453.898071,166.484360 453.499146,185.460510 452.575012,204.735718 
	C454.982635,204.735718 457.894592,204.735718 459.607544,204.735718 
	C458.895294,195.328796 458.184418,185.940247 457.473541,176.551682 
	C458.109436,176.411850 458.745300,176.272003 459.381195,176.132156 
	C460.551178,179.078781 461.721130,182.025391 462.891083,184.972000 
	C463.349091,184.948273 463.807068,184.924545 464.265076,184.900803 
	C463.859802,179.057205 463.454529,173.213608 463.003967,166.469833 
M155.000000,160.627533 
	C154.753311,157.116333 154.506622,153.605118 154.259933,150.093918 
	C154.679657,150.043396 155.099396,149.992889 155.519135,149.942368 
	C156.842712,155.980057 158.166275,162.017746 159.489853,168.055435 
	C159.849014,168.001236 160.208191,167.947037 160.567352,167.892822 
	C160.567352,160.986740 160.567352,154.080643 160.567352,147.301041 
	C154.629959,147.301041 148.888245,147.301041 142.734238,147.301041 
	C143.315994,154.427841 143.870377,161.219162 144.424744,168.010468 
	C144.861679,168.012787 145.298615,168.015091 145.735550,168.017395 
	C146.661026,162.002914 147.586502,155.988434 148.511963,149.973938 
	C149.997482,158.496902 150.809906,166.913544 150.918518,175.339249 
	C151.044479,185.108200 150.552200,194.885132 150.327423,204.697296 
	C152.437103,204.697296 155.644150,204.697296 158.706528,204.697296 
	C157.760162,201.062469 156.302292,197.715759 156.107040,194.296921 
	C155.485336,183.410995 155.333420,172.498260 155.000000,160.627533 
M681.000000,156.531525 
	C681.856384,160.384171 682.712769,164.236816 683.569153,168.089462 
	C683.956909,168.008423 684.344604,167.927399 684.732300,167.846375 
	C684.732300,160.990845 684.732300,154.135315 684.732300,147.250580 
	C678.744019,147.250580 673.005005,147.250580 666.753113,147.250580 
	C667.310303,154.353943 667.844666,161.165817 668.379028,167.977692 
	C668.833008,167.998184 669.287048,168.018661 669.741028,168.039154 
	C670.649963,162.020615 671.558838,156.002075 672.467712,149.983536 
	C673.641602,150.457199 673.940491,150.966019 673.964661,151.487549 
	C674.330994,159.396912 675.096313,167.319351 674.889587,175.215714 
	C674.633057,185.013458 676.856262,194.998505 672.757324,204.747040 
	C676.367432,204.747040 679.594421,204.747040 682.754089,204.747040 
	C677.092957,186.669266 680.044983,168.231903 679.404968,149.925659 
	C679.935852,151.837479 680.466736,153.749298 681.000000,156.531525 
M170.997040,160.524780 
	C170.319489,156.205917 169.641922,151.887054 168.914246,147.248718 
	C167.261810,147.248718 164.689133,147.248718 161.657837,147.248718 
	C167.636581,166.161850 174.986923,184.598145 169.171661,204.696411 
	C172.119812,204.696411 174.999115,204.696411 176.678040,204.696411 
	C176.115280,194.736359 174.475677,184.914246 175.325562,175.312485 
	C176.160736,165.876907 179.523819,156.665085 181.795975,147.279099 
	C179.230331,147.279099 176.667206,147.279099 174.770233,147.279099 
	C174.770233,154.875854 174.770233,162.212112 174.770233,169.548370 
	C174.284912,169.567657 173.799576,169.586945 173.314255,169.606232 
	C172.543533,166.864670 171.772812,164.123108 170.997040,160.524780 
M775.352661,191.878403 
	C775.045288,196.121490 774.737915,200.364594 774.423645,204.702805 
	C779.367859,204.702805 784.586304,204.702805 790.112915,204.702805 
	C789.313782,197.287216 791.491272,189.921936 787.470398,183.030533 
	C786.596924,189.312973 785.723511,195.595413 784.871765,201.721649 
	C782.999084,201.721649 781.613342,201.721649 780.000000,201.721649 
	C780.000000,199.303070 780.013306,197.159622 779.997620,195.016357 
	C779.947815,188.208588 780.350586,181.357452 779.717712,174.603760 
	C778.859924,165.450134 778.051819,156.402451 780.713379,147.225433 
	C777.928772,147.225433 775.025024,147.225433 771.986206,147.225433 
	C776.296265,161.760544 774.641785,176.458542 775.352661,191.878403 
M118.000000,181.466034 
	C118.000000,189.157990 118.000000,196.849945 118.000000,204.757996 
	C120.037804,204.757996 122.926521,204.757996 124.960258,204.757996 
	C121.938187,185.617065 120.960678,166.617798 123.017982,147.242523 
	C120.939171,147.242523 118.036865,147.242523 116.388000,147.242523 
	C116.928963,158.395142 117.464478,169.435593 118.000000,181.466034 
M52.020054,196.977386 
	C51.949081,191.501556 52.209702,185.996979 51.737679,180.555939 
	C50.773243,169.438873 50.011127,158.374329 52.566349,147.247116 
	C49.920708,147.247116 47.017078,147.247116 44.253365,147.247116 
	C48.506023,166.400833 46.758217,185.538849 46.954937,204.686340 
	C49.139553,204.686340 51.998184,204.686340 54.952164,204.686340 
	C53.988766,202.192810 53.145523,200.010269 52.020054,196.977386 
z"/>
<path fill="#000000" opacity="1.000000" stroke="none" 
	d="
M320.535339,1.000000 
	C335.866089,7.076768 340.250854,20.000652 343.056274,34.192410 
	C346.170044,49.944290 345.315277,65.855431 344.753815,81.645309 
	C344.315979,93.960281 342.311432,106.283356 335.412933,117.248108 
	C329.079651,127.314529 319.881104,130.573700 308.899200,128.865479 
	C298.613617,127.265549 292.636200,119.818588 289.098755,110.682343 
	C284.604126,99.073906 282.707489,86.884560 283.011047,74.409431 
	C283.292725,62.834763 282.958466,51.186115 284.193481,39.709732 
	C285.506470,27.508671 287.885498,15.208166 298.045105,6.584225 
	C300.539215,4.467122 303.852142,3.314590 306.894287,1.359302 
	C311.356903,1.000000 315.713806,1.000000 320.535339,1.000000 
M299.000000,95.516327 
	C299.889130,103.200760 300.555695,110.935616 305.114838,117.617371 
	C310.661835,125.746902 319.554535,125.239128 323.872131,116.388512 
	C327.470551,109.012085 328.861603,101.145432 329.116455,92.925041 
	C329.426697,82.917534 330.854279,72.928749 330.852814,62.932003 
	C330.851379,53.101879 330.233368,43.189129 328.814880,33.468925 
	C327.740479,26.106171 325.524170,18.764889 322.676147,11.885966 
	C321.697662,9.522573 317.436096,7.872181 314.379639,7.158985 
	C309.112762,5.930012 305.374573,8.486642 302.233521,18.548315 
	C299.754852,26.488138 298.584686,35.033474 298.172394,43.376064 
	C297.523560,56.505402 297.925171,69.691040 298.045929,82.851341 
	C298.081848,86.769081 298.666534,90.681793 299.000000,95.516327 
z"/>
<path fill="#000000" opacity="1.000000" stroke="none" 
	d="
M568.535339,1.000000 
	C583.866089,7.076751 588.250916,20.000656 591.056335,34.192364 
	C594.170166,49.944267 593.315186,65.855453 592.753784,81.645378 
	C592.315979,93.960381 590.311340,106.283447 583.412842,117.248199 
	C577.079529,127.314690 567.880920,130.573715 556.899109,128.865479 
	C546.613464,127.265511 540.636047,119.818466 537.098633,110.682114 
	C532.604065,99.073647 530.707397,86.884300 531.010986,74.409180 
	C531.292664,62.834484 530.958435,51.185814 532.193420,39.709400 
	C533.506348,27.508301 535.885803,15.207944 546.045288,6.583989 
	C548.539307,4.466928 551.852234,3.314494 554.894287,1.359290 
	C559.356873,1.000000 563.713806,1.000000 568.535339,1.000000 
M577.040833,92.771957 
	C577.692993,82.775322 578.850708,72.778786 578.852600,62.782032 
	C578.854492,53.119137 578.227661,43.373112 576.818298,33.819794 
	C575.732422,26.458708 573.286194,19.244822 570.887085,12.154202 
	C569.742432,8.771147 566.700684,6.971673 562.769348,6.959910 
	C556.273987,6.940475 552.853149,9.953456 549.997620,18.622528 
	C544.778015,34.468143 546.239624,51.023285 545.232971,67.266617 
	C544.639038,76.850815 546.086426,86.602432 547.078674,96.231041 
	C547.867188,103.882034 548.727600,111.557274 553.547241,118.189072 
	C558.677429,125.248283 566.910828,125.010963 571.150269,117.426025 
	C575.281677,110.034439 577.018982,102.094429 577.040833,92.771957 
z"/>
<path fill="#000000" opacity="1.000000" stroke="none" 
	d="
M501.536804,0.999999 
	C504.423920,2.018149 506.803009,3.173765 509.293915,3.986691 
	C510.288055,4.311141 511.576111,4.047366 512.645874,3.748719 
	C513.984314,3.375074 515.235718,2.689752 516.524719,2.138971 
	C517.016479,3.445783 517.921875,4.748477 517.934998,6.060059 
	C518.047852,17.385900 517.926147,28.714100 518.044373,40.039822 
	C518.080322,43.482441 516.635315,44.504372 514.574097,44.055161 
	C510.917175,33.701900 507.863312,23.762672 503.873840,14.214333 
	C501.196594,7.806702 497.053711,5.859962 492.644135,7.127099 
	C488.660614,8.271827 486.171051,12.946382 485.974060,19.021803 
	C485.614838,30.100521 489.943817,39.368065 496.432800,48.002781 
	C503.613586,57.558033 511.944824,66.617363 517.174805,77.180130 
	C524.304077,91.578850 525.917236,107.266144 515.842468,121.532181 
	C513.489441,124.864182 508.999634,127.904953 505.051483,128.610992 
	C498.936401,129.704544 492.323517,130.009293 486.299591,126.764877 
	C483.768250,125.401520 480.877716,122.667763 478.664276,127.570633 
	C478.362244,128.239609 475.915802,127.940445 474.219910,128.114380 
	C474.219910,112.744797 474.219910,97.632629 474.219910,82.428314 
	C475.513184,81.984558 476.842102,81.528587 478.167786,81.073730 
	C480.442810,89.525749 482.389740,98.086151 485.131775,106.383797 
	C486.619141,110.884659 489.047241,115.228470 491.786102,119.126633 
	C496.112000,125.283691 504.517365,124.458107 507.658844,117.699677 
	C511.910828,108.552101 510.433868,99.383423 507.044220,90.326340 
	C503.498413,80.852013 496.969238,73.348969 490.395966,66.012764 
	C477.382507,51.488873 471.871429,34.919491 476.113708,15.719805 
	C477.599426,8.995999 481.625885,3.711546 488.899231,1.354821 
	C493.024536,1.000000 497.049103,1.000000 501.536804,0.999999 
z"/>
<path fill="#000000" opacity="1.000000" stroke="none" 
	d="
M148.536819,1.000001 
	C151.423935,2.018146 153.802994,3.173743 156.293900,3.986678 
	C157.288055,4.311126 158.576096,4.047359 159.645874,3.748726 
	C160.984299,3.375095 162.235733,2.689776 163.524719,2.139006 
	C164.016434,3.445814 164.921921,4.748497 164.934982,6.060072 
	C165.047821,17.385910 164.926193,28.714119 165.044342,40.039848 
	C165.080276,43.482456 163.635239,44.504402 161.574173,44.055180 
	C157.917206,33.701828 154.863358,23.762571 150.873871,14.214247 
	C148.196655,7.806703 144.053619,5.859956 139.644104,7.127126 
	C135.660614,8.271867 133.171036,12.946437 132.974045,19.021847 
	C132.614807,30.100574 136.943832,39.368141 143.432831,48.002857 
	C150.613602,57.558121 158.944916,66.617416 164.174866,77.180199 
	C171.304138,91.578941 172.917191,107.266281 162.842468,121.532295 
	C160.489380,124.864304 155.999527,127.905052 152.051331,128.611053 
	C145.936249,129.704529 139.323364,130.009293 133.299469,126.764778 
	C130.768127,125.401382 127.877495,122.667732 125.664291,127.570831 
	C125.362373,128.239685 122.915764,127.940453 121.219864,128.114288 
	C121.219864,112.744621 121.219864,97.632446 121.219864,82.428375 
	C122.516014,81.983643 123.848557,81.526428 125.164558,81.074883 
	C127.442818,89.525871 129.389740,98.086334 132.131821,106.384026 
	C133.619186,110.884888 136.047394,115.228653 138.786270,119.126801 
	C143.112015,125.283478 151.517593,124.457672 154.658997,117.699486 
	C158.911087,108.551834 157.433533,99.383148 154.044067,90.326126 
	C150.498398,80.851730 143.969162,73.348671 137.395752,66.012535 
	C124.381943,51.488682 118.871742,34.918964 123.113792,15.719493 
	C124.599327,8.995998 128.625793,3.711269 135.899246,1.354811 
	C140.024551,1.000000 144.049088,1.000000 148.536819,1.000001 
z"/>
<path fill="#000000" opacity="1.000000" stroke="none" 
	d="
M1.000000,3.416667 
	C18.131184,3.000000 35.262367,3.000000 52.696453,3.000000 
	C52.696453,17.576988 52.696453,31.973524 52.696453,46.395264 
	C48.101578,47.297832 48.119003,47.293797 47.001404,42.469856 
	C44.679115,32.446087 42.436897,22.401299 39.884068,12.436294 
	C39.537006,11.081518 37.662426,9.256424 36.377594,9.156239 
	C31.443251,8.771478 26.461056,9.000407 21.251019,9.000407 
	C21.251019,25.357162 21.251019,41.426220 21.252640,57.495918 
	C31.924532,59.341396 34.749130,52.346165 36.236057,38.207741 
	C37.615814,38.127899 39.045887,38.045147 40.743965,37.946888 
	C40.743965,53.565781 40.743965,68.984322 40.743965,84.822876 
	C39.425205,84.888351 38.031277,84.957565 36.673126,85.025002 
	C35.543015,80.183212 35.072132,75.267227 33.209251,70.952194 
	C31.100040,66.066574 26.641605,64.198975 22.000000,65.119385 
	C22.000000,78.352867 21.830925,91.224846 22.091969,104.088081 
	C22.182985,108.573090 23.069412,113.101570 24.137632,117.477142 
	C24.552488,119.176437 26.622890,120.412521 27.660374,122.037590 
	C28.486757,123.331970 28.889639,124.896729 29.749855,127.000000 
	C19.854628,127.000000 10.895970,127.000000 1.468657,127.000000 
	C1.000000,125.611107 1.000000,124.222221 1.393921,122.416550 
	C3.185770,120.674988 5.429453,119.560623 5.821336,117.985535 
	C6.948473,113.455292 7.838393,108.746437 7.907418,104.094200 
	C8.147171,87.935226 8.127227,71.769203 7.959717,55.608410 
	C7.825877,42.696049 7.605876,29.770721 6.817502,16.888271 
	C6.607775,13.461226 7.122641,8.172577 1.000000,8.000000 
	C1.000000,6.611111 1.000000,5.222222 1.000000,3.416667 
z"/>
<path fill="#000000" opacity="1.000000" stroke="none" 
	d="
M640.533875,1.000000 
	C644.185852,2.989115 646.994690,5.518791 651.271912,2.491812 
	C653.613342,0.834764 656.037109,1.882943 656.022461,5.603482 
	C655.966248,19.912266 655.999634,34.221401 655.999634,48.763695 
	C654.317200,48.763695 652.916260,48.763695 652.589478,48.763695 
	C648.759521,36.877960 645.361450,25.214939 641.095154,13.878664 
	C640.028931,11.045570 636.504517,8.232490 633.507263,7.251577 
	C629.405151,5.909105 624.829712,10.180021 622.990479,15.406379 
	C619.501099,25.321903 618.351624,35.596786 617.978088,46.022346 
	C617.765930,51.943584 616.909363,57.870296 617.095459,63.770817 
	C617.405945,73.616257 618.108704,83.463112 619.057373,93.269600 
	C619.646423,99.358711 620.831726,105.408363 622.087524,111.404907 
	C622.531006,113.522346 623.674622,115.670166 625.031311,117.381882 
	C627.721252,120.775658 630.825256,124.011322 635.788635,122.944214 
	C641.810669,121.649506 645.430298,117.131981 646.819580,111.771858 
	C649.484924,101.488853 651.163269,90.950020 653.320068,80.172600 
	C654.374695,80.172600 656.332458,80.172600 659.061096,80.172600 
	C658.706787,84.916443 658.775513,89.807777 657.885254,94.517822 
	C656.635864,101.127502 654.840454,107.650658 652.970581,114.121841 
	C650.941467,121.144791 646.902039,127.368164 639.583740,128.755646 
	C629.804321,130.609756 620.341797,128.604935 614.275452,119.561714 
	C607.967590,110.158562 604.704529,99.498718 604.086914,88.256157 
	C603.378479,75.360260 602.587891,62.392159 603.205750,49.521309 
	C603.846802,36.165298 605.730774,22.821835 613.906006,11.337593 
	C617.041138,6.933389 620.704407,3.510687 625.904785,1.349898 
	C630.689270,1.000000 635.378479,1.000000 640.533875,1.000000 
z"/>
<path fill="#000000" opacity="1.000000" stroke="none" 
	d="
M829.399902,206.000000 
	C827.666626,200.777847 826.223145,195.580643 825.033081,190.326035 
	C823.988892,185.715347 823.228882,181.040268 822.343323,176.393646 
	C821.724976,176.476654 821.106628,176.559647 820.488281,176.642654 
	C821.169434,185.982224 821.850647,195.321793 822.539307,204.763641 
	C820.904541,204.763641 817.996765,204.763641 815.862854,204.763641 
	C816.161072,185.536026 817.276550,166.543167 813.234924,147.052704 
	C817.859985,147.789062 823.076660,144.775940 827.116943,149.665878 
	C828.000977,150.735870 828.976013,152.143707 829.018250,153.425308 
	C829.208862,159.210938 831.142029,166.283691 828.546082,170.478149 
	C825.259460,175.788589 826.771301,179.407333 827.994873,183.960251 
	C829.393799,189.165543 830.593323,194.424377 832.657471,199.640808 
	C832.903931,198.096985 833.150330,196.553177 833.396790,195.009369 
	C833.728760,194.966415 834.060730,194.923477 834.392700,194.880524 
	C834.732300,196.436142 835.071899,197.991745 835.411438,199.547348 
	C835.216064,182.139496 837.794067,164.611511 833.065430,147.262085 
	C836.055542,147.262085 838.952454,147.262085 841.207764,147.262085 
	C838.560059,166.545212 840.454834,185.378891 842.658264,205.175156 
	C840.773193,204.764618 837.860107,204.033539 834.904297,203.584106 
	C834.426208,203.511414 833.757874,204.690170 833.088745,205.645218 
	C831.933289,206.000000 830.866638,206.000000 829.399902,206.000000 
M820.000000,156.664154 
	C820.000000,162.046478 820.000000,167.428802 820.000000,173.387589 
	C827.839355,170.055405 824.207214,163.697174 824.918884,158.851761 
	C825.471191,155.090683 824.732971,151.535477 820.000000,149.875137 
	C820.000000,152.118591 820.000000,153.920654 820.000000,156.664154 
z"/>
<path fill="#FFFFFF" opacity="1.000000" stroke="none" 
	d="
M1.000000,8.468657 
	C7.122641,8.172577 6.607775,13.461226 6.817502,16.888271 
	C7.605876,29.770721 7.825877,42.696049 7.959717,55.608410 
	C8.127227,71.769203 8.147171,87.935226 7.907418,104.094200 
	C7.838393,108.746437 6.948473,113.455292 5.821336,117.985535 
	C5.429453,119.560623 3.185770,120.674988 1.393921,121.999893 
	C1.000000,84.312439 1.000000,46.624878 1.000000,8.468657 
z"/>
<path fill="#000000" opacity="1.000000" stroke="none" 
	d="
M702.399963,206.000000 
	C700.666687,200.773361 699.223816,195.571518 698.033020,190.312607 
	C696.989075,185.702316 696.228027,181.027969 695.342041,176.381912 
	C694.733398,176.462692 694.124817,176.543457 693.516174,176.624222 
	C694.154175,185.825043 694.792175,195.025864 695.453491,204.562469 
	C693.975952,204.562469 691.032043,204.562469 688.920837,204.562469 
	C689.027710,185.473694 690.372253,166.457581 686.198242,146.973236 
	C690.887268,147.867920 696.197510,144.729752 700.198486,149.744888 
	C701.065002,150.831024 702.002441,152.250336 702.039612,153.541214 
	C702.206421,159.331161 704.089050,166.364716 701.506348,170.609238 
	C698.370178,175.763580 699.734985,179.179260 700.951294,183.612228 
	C702.182678,188.100327 702.975098,192.707703 704.026672,197.247330 
	C704.228577,198.118729 704.740417,198.918320 705.471191,200.568512 
	C705.907227,198.102859 706.182739,196.544601 706.458252,194.986328 
	C708.423096,198.583496 708.598267,202.001053 706.108704,205.622864 
	C704.933289,206.000000 703.866638,206.000000 702.399963,206.000000 
M698.000000,158.754776 
	C698.150513,154.955231 697.706787,151.499176 693.322449,150.013504 
	C693.322449,157.891068 693.322449,165.371872 693.322449,172.852661 
	C693.843445,173.062057 694.364441,173.271439 694.885376,173.480835 
	C695.923584,171.356705 697.387756,169.326614 697.883240,167.082642 
	C698.404724,164.720840 698.000000,162.154556 698.000000,158.754776 
z"/>
<path fill="#000000" opacity="1.000000" stroke="none" 
	d="
M110.399994,206.000000 
	C108.666656,200.773361 107.223770,195.571533 106.032967,190.312607 
	C104.989029,185.702316 104.228012,181.027985 103.342041,176.381927 
	C102.733421,176.462692 102.124802,176.543457 101.516182,176.624222 
	C102.154114,185.825058 102.792053,195.025894 103.453262,204.562500 
	C101.975929,204.562500 99.032028,204.562500 96.920677,204.562500 
	C97.028313,185.473648 98.371765,166.457550 94.198471,146.973267 
	C98.887299,147.867950 104.197639,144.729660 108.198624,149.744919 
	C109.065094,150.831039 110.002472,152.250397 110.039658,153.541260 
	C110.206459,159.331207 112.089134,166.364944 109.506348,170.609299 
	C106.369751,175.763718 107.735260,179.179428 108.951286,183.612320 
	C110.182472,188.100494 110.975327,192.707764 112.026695,197.247452 
	C112.227936,198.116394 112.738312,198.913727 113.471237,200.568604 
	C113.907372,198.101730 114.184181,196.536011 114.460999,194.970276 
	C116.423035,198.583496 116.598206,202.001038 114.108704,205.622849 
	C112.933327,206.000000 111.866661,206.000000 110.399994,206.000000 
M104.012878,151.526062 
	C103.167175,150.989868 102.321480,150.453690 101.322159,149.820099 
	C101.322159,157.869034 101.322159,165.360703 101.322159,174.311859 
	C103.389221,172.120483 105.630577,170.839325 105.633308,169.553391 
	C105.645668,163.739471 105.025017,157.924194 104.012878,151.526062 
z"/>
<path fill="#000000" opacity="1.000000" stroke="none" 
	d="
M662.375000,206.000000 
	C659.322571,196.268173 656.684021,186.525391 653.946960,176.810379 
	C652.965454,173.326569 651.746094,169.909775 650.291138,166.526993 
	C650.250549,179.261032 649.926575,192.005386 654.301941,204.558044 
	C652.316040,204.558044 649.707703,204.558044 647.994263,204.558044 
	C647.611572,185.460556 649.475403,166.414825 645.079041,147.316711 
	C645.979004,147.213821 646.910461,147.070770 647.847229,147.011230 
	C648.669739,146.958954 649.498230,147.000305 650.387695,147.000305 
	C653.689941,158.223022 656.967590,169.362045 660.245178,180.501068 
	C660.929321,169.333038 661.845886,158.191635 656.923523,147.311218 
	C659.675415,147.311218 662.217102,147.311218 664.799072,147.311218 
	C662.223450,156.316284 662.789124,165.308701 663.827148,174.476761 
	C664.627869,181.548996 663.898743,188.785477 664.045227,195.944946 
	C664.107971,199.012985 664.666321,202.070862 664.999756,205.566681 
	C664.250000,206.000000 663.500000,206.000000 662.375000,206.000000 
z"/>
<path fill="#000000" opacity="1.000000" stroke="none" 
	d="
M40.375000,206.000000 
	C37.322563,196.268188 34.684055,186.525391 31.946957,176.810394 
	C30.965433,173.326599 29.746061,169.909805 28.286673,166.527557 
	C28.292786,179.255966 27.897249,192.008835 32.316475,204.557999 
	C30.324501,204.557999 27.718039,204.557999 25.994301,204.557999 
	C25.611616,185.460632 27.475267,166.414917 23.074251,147.295593 
	C24.818827,147.295593 26.568718,147.295593 28.474514,147.295593 
	C31.689852,158.222839 34.967445,169.361649 38.245037,180.500473 
	C38.929428,169.333023 39.845676,158.191650 34.923645,147.311218 
	C37.675423,147.311218 40.217129,147.311218 42.799061,147.311218 
	C40.223507,156.316315 40.789135,165.308701 41.827164,174.476776 
	C42.627899,181.549011 41.898815,188.785492 42.045235,195.944962 
	C42.107979,199.012985 42.666306,202.070877 42.999729,205.566681 
	C42.250000,206.000000 41.500000,206.000000 40.375000,206.000000 
z"/>
<path fill="#000000" opacity="1.000000" stroke="none" 
	d="
M799.428467,206.000000 
	C793.841309,200.323639 792.154236,193.469528 791.966431,186.004593 
	C791.788330,178.920258 791.022522,171.838821 791.115417,164.763977 
	C791.172058,160.451385 791.754150,155.921555 793.272339,151.935760 
	C794.193665,149.517059 797.057983,146.996826 799.572144,146.224976 
	C803.287231,145.084427 806.046265,147.499893 807.028259,151.376068 
	C808.283752,156.332016 810.414551,161.293427 810.487427,166.277069 
	C810.669739,178.739243 813.795105,191.597672 807.045288,203.433502 
	C806.629211,204.163101 805.827942,204.673050 805.102905,205.642578 
	C803.285645,206.000000 801.571289,206.000000 799.428467,206.000000 
M796.000000,175.396942 
	C797.521057,184.694687 795.399902,194.799408 802.152039,204.436234 
	C803.492310,201.800552 804.890808,200.320862 804.901733,198.831085 
	C805.002136,185.049942 804.971741,171.264786 804.684937,157.486938 
	C804.638000,155.231720 803.250916,152.965271 802.311829,150.777542 
	C801.124756,148.011765 799.513428,148.456940 798.176331,150.614243 
	C797.526794,151.662262 797.121033,153.003738 797.043213,154.239975 
	C796.620056,160.961990 796.333557,167.692627 796.000000,175.396942 
z"/>
<path fill="#000000" opacity="1.000000" stroke="none" 
	d="
M437.428467,206.000000 
	C431.841339,200.323639 430.154205,193.469559 429.966522,186.004608 
	C429.788361,178.920258 429.022522,171.838821 429.115417,164.763962 
	C429.172028,160.451370 429.754150,155.921539 431.272369,151.935760 
	C432.193695,149.517059 435.058014,146.996872 437.572205,146.225006 
	C441.287262,145.084442 444.046356,147.499939 445.028320,151.376114 
	C446.283813,156.332047 448.414551,161.293442 448.487427,166.277069 
	C448.669769,178.739243 451.795105,191.597672 445.045380,203.433502 
	C444.629272,204.163116 443.827942,204.673019 443.102936,205.642578 
	C441.285645,206.000000 439.571289,206.000000 437.428467,206.000000 
M434.000000,175.396942 
	C435.521027,184.694702 433.400055,194.799393 440.152008,204.436264 
	C441.492310,201.800568 442.890778,200.320892 442.901672,198.831085 
	C443.002167,185.049927 442.971832,171.264786 442.685120,157.486908 
	C442.638184,155.231705 441.250946,152.965286 440.311890,150.777573 
	C439.124725,148.011978 437.513336,148.456711 436.176239,150.614212 
	C435.526733,151.662247 435.120972,153.003738 435.043152,154.239960 
	C434.619995,160.961990 434.333527,167.692612 434.000000,175.396942 
z"/>
<path fill="#000000" opacity="1.000000" stroke="none" 
	d="
M10.437500,206.000000 
	C6.077113,201.870621 5.028687,196.842346 4.948378,191.309052 
	C4.790020,180.398087 4.466363,169.484833 3.925147,158.586716 
	C3.742593,154.910721 2.694937,151.277695 2.020730,147.502258 
	C4.866260,147.502258 7.654966,147.502258 10.420631,147.502258 
	C9.877439,150.042923 9.086885,152.090271 9.059668,154.147736 
	C8.927531,164.136169 8.732962,174.137390 9.108325,184.113449 
	C9.307526,189.407623 10.518358,194.679962 11.537501,199.910507 
	C11.700202,200.745544 13.297594,201.897934 14.163773,201.842468 
	C15.165649,201.778305 16.530910,200.731873 16.952126,199.768219 
	C17.637375,198.200531 17.987751,196.347092 17.950527,194.625687 
	C17.714605,183.715286 17.493576,172.799667 16.925961,161.903580 
	C16.677628,157.136536 15.622721,152.411514 14.894182,147.392548 
	C16.586798,147.392548 19.094648,147.392548 21.013252,147.392548 
	C20.684507,151.133545 20.009199,155.032867 20.062574,158.922165 
	C20.221437,170.498459 21.008852,182.076706 20.809238,193.641403 
	C20.741898,197.542801 18.455139,201.405884 17.091354,205.643250 
	C14.958333,206.000000 12.916667,206.000000 10.437500,206.000000 
z"/>
<path fill="#000000" opacity="1.000000" stroke="none" 
	d="
M132.437500,206.000000 
	C130.453400,205.440659 128.906799,204.881317 127.673813,204.435410 
	C127.673813,197.551300 127.673813,190.443802 127.673813,183.336304 
	C130.547531,189.999481 129.771042,197.752808 136.571747,204.043167 
	C137.505585,200.720230 139.389420,197.799011 138.738754,195.642502 
	C136.545120,188.372147 133.952805,181.123230 130.569153,174.336700 
	C126.662781,166.501785 124.793243,158.690948 127.029610,150.131592 
	C128.175522,145.745773 131.688797,145.731216 135.172363,146.086502 
	C136.713455,146.243683 138.197342,146.961761 139.705078,147.424713 
	C140.069489,153.571686 140.436020,159.719147 140.802536,165.866623 
	C140.437714,165.995148 140.072876,166.123672 139.708054,166.252213 
	C139.138733,164.998032 138.431549,163.786652 138.026398,162.481506 
	C136.890320,158.821762 135.995483,155.082901 134.741577,151.466766 
	C134.400436,150.482956 133.125397,149.822998 132.278961,149.014404 
	C131.523605,150.120956 130.034134,151.305115 130.141464,152.320480 
	C130.578506,156.455109 130.910782,160.766754 132.382965,164.588989 
	C134.898224,171.119324 138.718674,177.157028 141.108490,183.722839 
	C143.752014,190.985687 144.667206,198.539337 139.091309,205.643311 
	C136.958328,206.000000 134.916672,206.000000 132.437500,206.000000 
z"/>
<path fill="#000000" opacity="1.000000" stroke="none" 
	d="
M886.000000,204.666672 
	C883.044800,205.000000 880.089600,205.000000 877.447510,205.000000 
	C877.447510,198.569138 877.447510,192.604309 877.447510,186.319778 
	C874.828857,186.319778 872.746216,186.319778 869.643250,186.319778 
	C870.160095,192.205505 870.691467,198.256531 871.250000,204.617065 
	C869.784363,204.617065 867.618774,204.617065 865.073486,204.617065 
	C867.394836,185.689453 869.708252,166.730789 872.123657,147.785126 
	C872.174133,147.389786 873.403442,147.144775 874.498962,146.636536 
	C876.372620,157.240585 878.082275,167.524551 880.032410,177.762726 
	C881.625244,186.124817 883.505127,194.432175 885.628906,202.881897 
	C886.000000,203.444443 886.000000,203.888901 886.000000,204.666672 
M871.003113,181.277100 
	C872.513733,181.972626 874.024292,182.668167 876.485535,183.801392 
	C875.051636,176.375397 873.914612,170.486618 872.777527,164.597839 
	C872.600037,164.640915 872.422607,164.684006 872.245117,164.727081 
	C871.830139,169.935989 871.415100,175.144882 871.003113,181.277100 
z"/>
<path fill="#000000" opacity="1.000000" stroke="none" 
	d="
M615.428467,206.000000 
	C609.983337,200.431564 608.357544,193.654114 607.997070,186.417343 
	C607.677856,180.009460 606.966003,173.594238 607.115784,167.198395 
	C607.236328,162.049332 607.933044,156.806900 609.226196,151.827179 
	C610.197815,148.085754 612.787720,145.182053 617.560303,145.985855 
	C621.842773,146.707153 624.319458,148.618683 624.061707,153.447128 
	C623.787231,158.589447 624.000000,163.757767 624.000000,168.914734 
	C623.572998,168.951385 623.145935,168.988037 622.718933,169.024689 
	C620.970276,162.259933 619.221619,155.495178 617.347412,148.244675 
	C609.525330,154.381012 610.628540,196.267853 617.843445,203.048782 
	C621.988892,201.111282 621.908020,197.319366 622.167725,193.540359 
	C622.408752,190.032562 623.041565,186.551697 623.530090,182.845215 
	C626.458191,187.511292 625.046082,200.097412 621.095520,205.638641 
	C619.285645,206.000000 617.571289,206.000000 615.428467,206.000000 
z"/>
<path fill="#000000" opacity="1.000000" stroke="none" 
	d="
M220.987335,16.390392 
	C219.292984,12.999837 220.414871,8.197716 215.283157,7.385418 
	C214.996140,7.339987 215.114929,4.730794 215.038589,3.188546 
	C224.178421,3.188546 232.951431,3.188546 241.724426,3.188546 
	C242.093506,3.558724 242.462585,3.928901 242.831665,4.299079 
	C241.670715,5.617418 240.197311,6.774968 239.417908,8.289634 
	C238.054108,10.940006 236.296417,13.765042 236.142349,16.595215 
	C235.476990,28.817280 235.170105,41.066029 235.040741,53.308323 
	C234.873581,69.126511 234.833008,84.950531 235.091217,100.766273 
	C235.180771,106.251724 236.059616,111.772850 237.135834,117.166359 
	C237.494781,118.965340 239.772217,120.308273 240.833923,122.064453 
	C241.620682,123.365829 241.859726,124.998344 242.452866,126.821861 
	C232.870132,126.821861 224.098251,126.821861 215.326355,126.821861 
	C214.944168,126.475319 214.561966,126.128777 214.179764,125.782227 
	C215.316620,124.433754 216.831375,123.251167 217.511353,121.702133 
	C218.910233,118.515427 220.768265,115.153419 220.844070,111.827232 
	C221.194702,96.442345 220.998947,81.044998 220.998947,65.324539 
	C213.464279,65.324539 205.060211,65.324539 195.697525,65.324539 
	C198.157700,85.661537 190.841690,107.075233 203.755936,126.766403 
	C194.095749,126.766403 185.323700,126.766403 176.079971,126.766403 
	C176.259979,124.609581 174.855682,122.608452 178.706711,121.324951 
	C180.454285,120.742523 181.662567,116.430443 181.867233,113.716125 
	C182.549362,104.668465 182.632507,95.576790 183.011337,86.504738 
	C183.286148,79.923630 184.082306,73.336449 183.917648,66.770241 
	C183.487396,49.612740 182.849350,32.453278 181.780396,15.326666 
	C181.619400,12.747243 181.416214,8.626188 176.962769,7.761111 
	C176.281479,7.628772 176.073868,5.057775 175.538239,3.246210 
	C184.853851,3.246210 193.625641,3.246210 202.844589,3.246210 
	C202.826691,5.385931 203.898773,7.072556 200.404327,8.679783 
	C198.386612,9.607808 197.220932,14.231920 197.147858,17.228485 
	C196.813507,30.940844 197.000916,44.665928 197.000916,58.695320 
	C204.577271,58.695320 212.980347,58.695320 220.998413,58.695320 
	C220.998413,44.820415 220.998413,30.826862 220.987335,16.390392 
z"/>
<path fill="#000000" opacity="1.000000" stroke="none" 
	d="
M402.019775,84.942070 
	C402.561707,86.442871 403.084412,87.539078 402.998047,87.357948 
	C402.998047,70.650803 403.370453,52.771156 402.815247,34.920353 
	C402.592407,27.755821 400.598206,20.587633 398.835114,13.565523 
	C398.305603,11.456656 395.681854,9.940857 394.309021,7.952122 
	C393.438904,6.691603 393.107361,5.059326 392.380310,3.200081 
	C400.999634,3.200081 408.775787,3.200081 418.445953,3.200081 
	C416.681671,5.453967 415.256805,6.680152 414.603271,8.231313 
	C413.192352,11.580023 411.435577,15.034231 411.144562,18.554741 
	C410.383331,27.763577 410.090027,37.030056 410.045898,46.275627 
	C409.916809,73.332878 410.000000,100.391144 410.000000,127.582344 
	C405.733185,128.162079 403.487793,128.696823 401.855957,124.451668 
	C390.283600,94.346848 378.330933,64.388214 367.002014,35.657379 
	C367.002014,54.349892 366.644806,74.219215 367.185272,94.064102 
	C367.389374,101.558281 369.408447,109.058044 371.166168,116.420128 
	C371.669006,118.526268 374.301819,120.057121 375.676880,122.046097 
	C376.543182,123.299179 376.887451,124.913147 377.637512,126.796066 
	C369.013885,126.796066 361.236877,126.796066 353.045898,126.796066 
	C353.114532,124.464340 352.002899,122.072334 355.875916,121.420815 
	C356.787903,121.267387 357.786621,118.785118 357.918152,117.300880 
	C358.742462,108.001442 359.763794,98.688004 359.909851,89.366501 
	C360.209961,70.213959 360.151978,51.051498 359.908325,31.897360 
	C359.834259,26.074266 358.827637,20.240438 357.932220,14.460464 
	C357.519379,11.795450 357.293884,8.775425 353.685547,7.721454 
	C353.050934,7.536089 353.134491,4.892081 352.851562,3.171953 
	C358.807068,3.171953 364.267059,3.171953 369.902466,3.171953 
	C380.602264,30.294878 391.301392,57.416180 402.019775,84.942070 
z"/>
<path fill="#000000" opacity="1.000000" stroke="none" 
	d="
M699.003662,125.162323 
	C699.039673,124.055061 698.867065,122.931648 699.148621,122.803177 
	C707.205200,119.126038 705.051025,111.271912 705.764465,105.119057 
	C706.717468,96.899879 706.000000,88.487007 706.000000,80.157326 
	C706.000000,61.998230 706.124084,43.837662 705.909119,25.681110 
	C705.857971,21.364225 704.974731,16.980850 703.867493,12.788305 
	C703.387512,10.970801 701.172729,9.678270 700.117249,7.923923 
	C699.333313,6.620927 699.147705,4.957921 698.604309,3.151694 
	C716.370300,3.151694 733.334656,3.151694 750.649658,3.151694 
	C750.649658,17.627172 750.649658,32.166504 750.649658,46.853745 
	C749.327026,46.853745 748.039795,46.853745 746.547058,46.853745 
	C746.074402,45.673653 745.381653,44.413097 745.059082,43.064049 
	C742.664612,33.050430 740.212219,23.047037 738.081543,12.976223 
	C737.460754,10.042040 736.449951,8.779665 733.329041,8.939064 
	C728.712524,9.174852 724.075134,9.000020 719.227295,9.000020 
	C719.227295,25.417530 719.227295,41.498180 719.227295,57.572708 
	C731.727051,58.737030 732.248718,52.053337 734.323547,38.218735 
	C735.705688,38.218735 737.123474,38.218735 738.776367,38.218735 
	C738.776367,53.670494 738.776367,69.096306 738.776367,84.760994 
	C737.315125,84.760994 735.911499,84.760994 735.522095,84.760994 
	C733.196045,78.924400 731.616272,73.082703 728.567505,68.148804 
	C727.166687,65.881882 722.883972,65.395798 719.215454,63.801037 
	C719.215454,83.623947 719.215454,102.050720 719.215454,120.739136 
	C725.683960,120.739136 732.103027,120.739136 738.794312,120.739136 
	C741.946106,107.720184 745.117065,94.621964 748.364380,81.208458 
	C749.577209,81.131187 751.024597,81.038971 752.741699,80.929573 
	C752.741699,96.206032 752.741699,111.301407 752.741699,127.000000 
	C748.564087,127.000000 744.301819,127.000000 740.039612,127.000000 
	C727.711670,127.000000 715.383423,127.042915 703.056335,126.938972 
	C701.702881,126.927559 700.356445,126.073257 699.003662,125.162323 
z"/>
<path fill="#000000" opacity="1.000000" stroke="none" 
	d="
M66.016273,99.357597 
	C66.001419,104.158417 65.571144,108.549026 66.151009,112.801910 
	C66.537773,115.638565 68.249886,118.336319 69.585716,120.986946 
	C70.463768,122.729218 71.728165,124.276779 73.406570,126.790817 
	C64.404968,126.790817 56.954407,126.790817 48.660061,126.790817 
	C62.015987,86.265610 67.930336,44.224796 78.342461,3.130864 
	C80.743294,3.130864 83.046768,3.130864 85.177185,3.130864 
	C95.593010,44.205280 100.463440,86.539101 114.977707,126.826057 
	C105.905762,126.826057 97.126526,126.826057 87.071114,126.826057 
	C88.265984,124.648666 89.217529,123.129623 89.954697,121.512833 
	C90.741875,119.786392 91.976906,117.935219 91.890030,116.194725 
	C91.457214,107.523521 90.795250,98.854767 89.817863,90.230034 
	C89.681435,89.026115 87.403152,87.228477 86.030388,87.146584 
	C80.232666,86.800720 74.402420,87.000114 68.221603,87.000114 
	C67.475159,91.050133 66.752800,94.969475 66.016273,99.357597 
M72.959511,60.292824 
	C71.596077,67.046761 70.232643,73.800697 68.833351,80.732239 
	C75.441216,80.732239 81.665794,80.732239 88.116501,80.732239 
	C84.914680,65.117836 81.774872,49.805874 78.341385,33.061722 
	C76.371132,42.777149 74.684074,51.096138 72.959511,60.292824 
z"/>
<path fill="#000000" opacity="1.000000" stroke="none" 
	d="
M805.980286,21.150671 
	C804.849243,16.893530 803.735535,13.063136 802.591370,9.128105 
	C800.899170,9.128105 799.251953,9.128105 797.200562,9.128105 
	C797.135864,10.498876 797.009216,11.938663 797.008606,13.378503 
	C796.996948,41.375538 796.879395,69.373505 797.096252,97.368866 
	C797.142639,103.357941 797.946533,109.448730 799.335022,115.269989 
	C799.940063,117.806587 803.044434,119.679123 804.732544,122.053162 
	C805.613892,123.292465 805.885498,124.965271 806.569153,126.811287 
	C795.621399,126.811287 785.507690,126.811287 773.629822,126.811287 
	C775.423584,124.286499 776.929565,122.798485 777.669922,120.995956 
	C779.316711,116.986290 781.490662,112.891365 781.822632,108.702248 
	C782.684204,97.830559 782.768982,86.891174 782.978333,75.975243 
	C783.385925,54.726368 783.667236,33.475063 783.998047,12.224723 
	C784.013000,11.265670 783.999939,10.306181 783.999939,9.174883 
	C781.656067,9.174883 779.705444,9.174883 777.449707,9.174883 
	C774.267639,21.905348 771.048096,34.785572 767.790222,47.819077 
	C766.286804,47.819077 764.849487,47.819077 763.205444,47.819077 
	C763.205444,32.987373 763.205444,18.227619 763.205444,3.233643 
	C781.062256,3.233643 798.799500,3.233643 816.768799,3.233643 
	C816.768799,18.079481 816.768799,32.829491 816.768799,47.789680 
	C815.281921,47.789680 813.869141,47.789680 812.281860,47.789680 
	C810.184204,39.040230 808.090881,30.308826 805.980286,21.150671 
z"/>
<path fill="#000000" opacity="1.000000" stroke="none" 
	d="
M871.754944,34.623543 
	C867.398987,46.226242 862.846436,57.359512 859.339050,68.812851 
	C858.176453,72.609390 859.885376,77.226158 859.960449,81.473595 
	C860.098999,89.299660 859.638184,97.152710 860.128845,104.950356 
	C860.448547,110.031898 861.764160,115.102570 863.125671,120.042473 
	C863.709106,122.158989 865.543396,123.930717 867.396057,126.752823 
	C857.141357,126.752823 848.373169,126.752823 839.158813,126.752823 
	C839.169189,124.613907 837.693054,122.176384 841.739685,121.531998 
	C842.651733,121.386757 843.684692,119.287170 843.901062,117.962944 
	C844.763916,112.681236 845.470764,107.363716 845.960327,102.034180 
	C846.471619,96.468193 846.507629,90.858139 847.033081,85.293945 
	C848.133850,73.637886 845.528809,62.772011 841.107300,52.047398 
	C835.742432,39.034790 831.057617,25.743279 825.887817,12.647755 
	C824.707031,9.656738 822.745178,6.974060 820.656921,3.292858 
	C830.323853,3.292858 838.545776,3.292858 846.986633,3.292858 
	C846.986633,4.513185 847.468018,6.035867 846.912537,6.736059 
	C841.007019,14.180426 846.145752,21.268290 847.819031,28.213461 
	C849.986633,37.210381 853.257690,45.941433 856.053711,54.786934 
	C856.527710,54.836296 857.001709,54.885658 857.475708,54.935020 
	C859.983826,44.718128 862.702881,34.545956 864.882812,24.259508 
	C865.622620,20.768209 865.433105,16.915283 864.831360,13.369617 
	C864.500427,11.419484 862.281982,9.849107 861.192932,7.948008 
	C860.425476,6.608223 860.126587,5.000053 859.503418,3.174787 
	C868.105957,3.174787 875.885498,3.174787 884.833130,3.174787 
	C883.751648,5.611281 882.860291,7.490569 882.074219,9.412895 
	C878.687927,17.694670 875.332458,25.989086 871.754944,34.623543 
z"/>
<path fill="#000000" opacity="1.000000" stroke="none" 
	d="
M672.000000,36.005413 
	C671.333191,27.865341 670.850586,20.199951 669.854797,12.601811 
	C669.637512,10.943363 667.465210,9.603262 666.419678,7.971523 
	C665.586914,6.671771 665.098938,5.151098 664.234619,3.233162 
	C673.890015,3.233162 682.665955,3.233162 691.910583,3.233162 
	C691.750854,5.391521 692.813599,7.008547 689.394897,8.743275 
	C687.212585,9.850636 686.203918,14.943704 686.135193,18.279995 
	C685.563416,46.012848 685.215698,73.752243 685.100342,101.490913 
	C685.077515,106.969650 686.239014,112.470634 687.096497,117.923271 
	C687.305420,119.251534 688.344666,120.530006 689.230835,121.650414 
	C690.333252,123.044189 691.672974,124.250259 692.910217,125.537376 
	C692.563416,125.948463 692.216553,126.359543 691.869751,126.770630 
	C683.094177,126.770630 674.318604,126.770630 665.068665,126.770630 
	C665.264893,124.603935 663.870667,122.596992 667.717773,121.319481 
	C669.461426,120.740471 670.671814,116.417397 670.867310,113.702301 
	C671.543152,104.317329 671.633362,94.891243 672.010864,85.483391 
	C672.288391,78.567467 672.961182,71.654175 672.928040,64.742249 
	C672.882935,55.328316 672.333313,45.916798 672.000000,36.005413 
z"/>
<path fill="#000000" opacity="1.000000" stroke="none" 
	d="
M268.000000,94.972748 
	C268.333618,101.216049 267.992493,107.111404 269.205688,112.667381 
	C270.252289,117.460442 273.067902,121.867226 275.243530,126.764595 
	C266.115692,126.764595 257.339783,126.764595 248.096252,126.764595 
	C248.244492,124.611839 246.866074,122.635864 250.693817,121.331451 
	C252.454071,120.731598 253.661819,116.438354 253.866699,113.725243 
	C254.550079,104.675011 254.632507,95.580544 255.011353,86.505783 
	C255.286179,79.922699 256.082367,73.333557 255.917664,66.765373 
	C255.487259,49.602753 254.848785,32.438194 253.780228,15.306409 
	C253.619278,12.725861 253.408829,8.596132 248.938950,7.756207 
	C248.276825,7.631789 248.078140,5.040997 247.564346,3.237811 
	C256.873322,3.237811 265.649445,3.237811 274.888977,3.237811 
	C274.773224,5.388081 275.786133,6.971124 272.414825,8.730697 
	C270.217438,9.877588 269.212402,14.927427 269.136047,18.262344 
	C268.554413,43.662731 268.333344,69.071388 268.000000,94.972748 
z"/>
<path fill="#000000" opacity="1.000000" stroke="none" 
	d="
M89.000000,179.865417 
	C89.000000,182.205490 89.000000,184.071899 89.000000,185.938324 
	C88.616951,185.980057 88.233902,186.021790 87.850853,186.063522 
	C86.680557,182.735489 85.510262,179.407471 84.339966,176.079453 
	C83.958557,176.216675 83.577148,176.353897 83.195740,176.491119 
	C83.195740,184.879837 83.195740,193.268539 83.195740,201.827911 
	C85.005852,201.827911 86.624153,201.827911 88.851334,201.827911 
	C89.700798,195.696793 90.577347,189.370209 91.453888,183.043625 
	C91.929535,183.021332 92.405182,182.999023 92.880821,182.976730 
	C93.389015,190.080200 93.897202,197.183670 94.432373,204.664368 
	C88.337204,204.664368 82.782761,204.664368 77.691582,204.664368 
	C78.666801,186.359482 78.514305,168.155136 76.229355,150.032532 
	C75.436600,149.990692 74.643852,149.948868 73.851105,149.907028 
	C71.722954,168.149612 69.594810,186.392212 67.250618,206.486725 
	C65.726440,203.999039 64.368057,202.686539 64.078201,201.169830 
	C60.955391,184.829224 58.006149,168.455475 54.991970,152.094009 
	C54.705074,150.536697 54.300034,149.001129 53.892338,147.201660 
	C56.615505,147.201660 59.061829,147.201660 60.547089,147.201660 
	C62.358250,160.727814 64.144264,174.066132 65.930275,187.404434 
	C67.702888,174.037521 71.384933,160.774170 67.068779,147.001022 
	C74.367912,147.001022 81.516014,146.882339 88.652069,147.122070 
	C89.793289,147.160385 91.792213,148.755493 91.843094,149.713333 
	C92.145973,155.414902 91.992821,161.140686 91.992821,166.858337 
	C91.399696,166.952377 90.806580,167.046417 90.213455,167.140457 
	C88.970528,161.559921 87.727592,155.979370 86.436852,150.184158 
	C85.215431,150.184158 83.801636,150.184158 82.193596,150.184158 
	C82.193596,157.622208 82.193596,164.916077 82.193596,172.464401 
	C87.904594,171.341675 84.993515,166.041290 86.476196,162.967590 
	C86.957657,162.966583 87.439117,162.965576 87.920578,162.964569 
	C88.280380,168.440292 88.640190,173.916031 89.000000,179.865417 
z"/>
<path fill="#000000" opacity="1.000000" stroke="none" 
	d="
M712.999878,173.884735 
	C714.316589,164.547272 713.800476,155.309296 716.762573,146.760132 
	C717.330872,146.839523 717.899109,146.918915 718.467407,146.998322 
	C721.865173,165.631790 725.262939,184.265259 728.808533,203.709259 
	C732.836548,197.822739 732.126709,168.896851 728.068481,147.249084 
	C731.016846,147.249084 733.920776,147.249084 736.718750,147.249084 
	C734.032043,156.372177 734.869568,165.431488 735.713440,174.591705 
	C736.336365,181.353210 735.945740,188.208450 735.997437,195.022003 
	C736.013672,197.166672 736.000000,199.311569 736.000000,201.726517 
	C737.627991,201.726517 739.023865,201.726517 740.870422,201.726517 
	C741.729187,195.586426 742.607666,189.305542 743.486145,183.024673 
	C747.480164,189.946457 745.332336,197.310349 746.092285,204.722351 
	C737.543762,204.722351 729.323181,204.722351 721.433105,204.722351 
	C721.433105,198.570282 721.433105,192.591278 721.433105,186.306274 
	C718.791260,186.306274 716.707031,186.306274 713.629578,186.306274 
	C714.159485,192.248352 714.699768,198.306732 715.265076,204.646362 
	C713.890747,204.646362 711.833679,204.646362 709.000854,204.646362 
	C710.314270,194.695145 711.657043,184.521149 712.999878,173.884735 
M719.996887,180.624084 
	C718.889771,175.204483 717.782654,169.784882 716.675476,164.365280 
	C716.531067,164.398972 716.386719,164.432678 716.242310,164.466385 
	C715.784424,170.594543 715.326538,176.722702 714.773621,184.122498 
	C717.242065,182.892258 718.618530,182.206238 719.996887,180.624084 
z"/>
<path fill="#000000" opacity="1.000000" stroke="none" 
	d="
M852.824707,205.000000 
	C850.268555,205.000000 848.167297,205.000000 847.075073,205.000000 
	C846.353210,185.512436 848.882690,166.502960 844.221375,147.724854 
	C854.880798,145.698563 859.500061,146.346863 862.024048,158.718948 
	C864.726318,171.964493 865.437866,185.204254 861.970093,198.416061 
	C860.831421,202.754440 858.416870,205.765732 852.824707,205.000000 
M851.000000,166.423187 
	C851.482910,178.240265 851.965881,190.057358 852.446350,201.815567 
	C856.478821,202.852676 857.732727,200.111481 857.909058,197.274658 
	C858.480408,188.081360 859.079163,178.853470 858.842712,169.660110 
	C858.704041,164.268646 857.228027,158.857819 855.857117,153.584778 
	C855.449463,152.016861 853.357361,150.886887 852.037048,149.556259 
	C851.691345,149.873978 851.345703,150.191696 851.000000,150.509415 
	C851.000000,155.487564 851.000000,160.465698 851.000000,166.423187 
z"/>
<path fill="#000000" opacity="1.000000" stroke="none" 
	d="
M634.000000,194.921661 
	C634.000000,197.395325 634.000000,199.379166 634.000000,201.764709 
	C635.881714,201.862213 637.610352,201.951782 639.826416,202.066605 
	C640.720154,195.627594 641.594849,189.326523 642.469482,183.025436 
	C642.942322,183.014893 643.415161,183.004349 643.888000,182.993805 
	C644.388062,190.117004 644.888184,197.240189 645.412292,204.704437 
	C639.246460,204.704437 633.689270,204.704437 629.000000,204.704437 
	C629.000000,195.021973 629.246155,185.463531 628.930786,175.923660 
	C628.614929,166.368652 627.738342,156.832153 627.088562,147.001007 
	C630.698792,147.001007 635.179504,146.890976 639.647644,147.079437 
	C640.745178,147.125748 642.714233,148.113144 642.736389,148.723892 
	C642.965271,155.043701 642.877075,161.374985 642.877075,167.703079 
	C642.317566,167.729080 641.758057,167.755081 641.198547,167.781097 
	C639.998718,162.071915 638.798950,156.362747 637.512634,150.241928 
	C636.487793,150.158615 635.051086,150.041824 633.300598,149.899536 
	C633.300598,157.488708 633.300598,164.917236 633.300598,172.478470 
	C639.027100,171.488220 635.925598,166.003494 637.500732,162.911667 
	C638.046326,162.946472 638.591980,162.981277 639.137573,163.016083 
	C639.499329,170.623672 639.861023,178.231247 640.222717,185.838837 
	C639.747986,185.899048 639.273254,185.959259 638.798523,186.019470 
	C637.675537,182.739227 636.552551,179.458984 635.429565,176.178741 
	C634.953003,176.269379 634.476501,176.360016 634.000000,176.450653 
	C634.000000,182.444382 634.000000,188.438110 634.000000,194.921661 
z"/>
<path fill="#000000" opacity="1.000000" stroke="none" 
	d="
M757.000000,166.193848 
	C756.221497,159.639786 755.442993,153.565308 754.601807,147.001511 
	C758.735962,147.001511 763.326660,146.883575 767.902649,147.090485 
	C768.950745,147.137878 770.818542,148.285477 770.832825,148.957993 
	C770.958984,154.913498 770.769470,160.876526 770.598206,166.835175 
	C770.588806,167.161392 769.912720,167.468414 769.179199,168.102097 
	C767.992798,162.042984 766.854736,156.230850 765.675781,150.209763 
	C764.295898,150.209763 762.873047,150.209763 761.219543,150.209763 
	C761.219543,157.668991 761.219543,165.101639 761.219543,172.600571 
	C766.909912,171.378189 764.057861,166.208389 765.424072,163.007538 
	C765.948669,163.000000 766.473206,162.992477 766.997803,162.984955 
	C767.432190,170.252899 767.866638,177.520844 768.301025,184.788803 
	C767.848633,184.880356 767.396240,184.971924 766.943848,185.063492 
	C765.732056,182.073929 764.520325,179.084351 763.308533,176.094788 
	C762.689331,176.250626 762.070068,176.406479 761.450867,176.562317 
	C762.167358,185.838516 762.883789,195.114731 763.620056,204.646744 
	C762.043457,204.646744 759.195496,204.646744 757.000000,204.646744 
	C757.000000,192.000656 757.000000,179.337051 757.000000,166.193848 
z"/>
<path fill="#000000" opacity="1.000000" stroke="none" 
	d="
M463.026611,166.919922 
	C463.454529,173.213608 463.859802,179.057205 464.265076,184.900803 
	C463.807068,184.924545 463.349091,184.948273 462.891083,184.972000 
	C461.721130,182.025391 460.551178,179.078781 459.381195,176.132156 
	C458.745300,176.272003 458.109436,176.411850 457.473541,176.551682 
	C458.184418,185.940247 458.895294,195.328796 459.607544,204.735718 
	C457.894592,204.735718 454.982635,204.735718 452.575012,204.735718 
	C453.499146,185.460510 453.898071,166.484360 450.546753,147.007553 
	C454.852448,147.007553 459.585846,146.883392 464.301910,147.113831 
	C465.229492,147.159149 466.833679,148.547516 466.862152,149.360718 
	C467.060028,155.012665 466.955627,160.676895 466.841797,166.335052 
	C466.831665,166.837006 466.063202,167.323700 465.259308,168.277359 
	C464.024750,162.071976 462.872131,156.278458 461.659943,150.185471 
	C460.367126,150.121567 458.931854,150.050629 457.243164,149.967163 
	C457.243164,157.611282 457.243164,165.061676 457.243164,172.582825 
	C462.865875,171.375351 460.114624,166.266022 462.453827,162.897766 
	C462.637207,164.088455 462.820587,165.279144 463.026611,166.919922 
z"/>
<path fill="#000000" opacity="1.000000" stroke="none" 
	d="
M155.000000,161.111694 
	C155.333420,172.498260 155.485336,183.410995 156.107040,194.296921 
	C156.302292,197.715759 157.760162,201.062469 158.706528,204.697296 
	C155.644150,204.697296 152.437103,204.697296 150.327423,204.697296 
	C150.552200,194.885132 151.044479,185.108200 150.918518,175.339249 
	C150.809906,166.913544 149.997482,158.496902 148.511963,149.973938 
	C147.586502,155.988434 146.661026,162.002914 145.735550,168.017395 
	C145.298615,168.015091 144.861679,168.012787 144.424744,168.010468 
	C143.870377,161.219162 143.315994,154.427841 142.734238,147.301041 
	C148.888245,147.301041 154.629959,147.301041 160.567352,147.301041 
	C160.567352,154.080643 160.567352,160.986740 160.567352,167.892822 
	C160.208191,167.947037 159.849014,168.001236 159.489853,168.055435 
	C158.166275,162.017746 156.842712,155.980057 155.519135,149.942368 
	C155.099396,149.992889 154.679657,150.043396 154.259933,150.093918 
	C154.506622,153.605118 154.753311,157.116333 155.000000,161.111694 
z"/>
<path fill="#000000" opacity="1.000000" stroke="none" 
	d="
M680.998779,156.096313 
	C680.466736,153.749298 679.935852,151.837479 679.404968,149.925659 
	C680.044983,168.231903 677.092957,186.669266 682.754089,204.747040 
	C679.594421,204.747040 676.367432,204.747040 672.757324,204.747040 
	C676.856262,194.998505 674.633057,185.013458 674.889587,175.215714 
	C675.096313,167.319351 674.330994,159.396912 673.964661,151.487549 
	C673.940491,150.966019 673.641602,150.457199 672.467712,149.983536 
	C671.558838,156.002075 670.649963,162.020615 669.741028,168.039154 
	C669.287048,168.018661 668.833008,167.998184 668.379028,167.977692 
	C667.844666,161.165817 667.310303,154.353943 666.753113,147.250580 
	C673.005005,147.250580 678.744019,147.250580 684.732300,147.250580 
	C684.732300,154.135315 684.732300,160.990845 684.732300,167.846375 
	C684.344604,167.927399 683.956909,168.008423 683.569153,168.089462 
	C682.712769,164.236816 681.856384,160.384171 680.998779,156.096313 
z"/>
<path fill="#000000" opacity="1.000000" stroke="none" 
	d="
M170.999573,160.953156 
	C171.772812,164.123108 172.543533,166.864670 173.314255,169.606232 
	C173.799576,169.586945 174.284912,169.567657 174.770233,169.548370 
	C174.770233,162.212112 174.770233,154.875854 174.770233,147.279099 
	C176.667206,147.279099 179.230331,147.279099 181.795975,147.279099 
	C179.523819,156.665085 176.160736,165.876907 175.325562,175.312485 
	C174.475677,184.914246 176.115280,194.736359 176.678040,204.696411 
	C174.999115,204.696411 172.119812,204.696411 169.171661,204.696411 
	C174.986923,184.598145 167.636581,166.161850 161.657837,147.248718 
	C164.689133,147.248718 167.261810,147.248718 168.914246,147.248718 
	C169.641922,151.887054 170.319489,156.205917 170.999573,160.953156 
z"/>
<path fill="#000000" opacity="1.000000" stroke="none" 
	d="
M775.188293,191.449646 
	C774.641785,176.458542 776.296265,161.760544 771.986206,147.225433 
	C775.025024,147.225433 777.928772,147.225433 780.713379,147.225433 
	C778.051819,156.402451 778.859924,165.450134 779.717712,174.603760 
	C780.350586,181.357452 779.947815,188.208588 779.997620,195.016357 
	C780.013306,197.159622 780.000000,199.303070 780.000000,201.721649 
	C781.613342,201.721649 782.999084,201.721649 784.871765,201.721649 
	C785.723511,195.595413 786.596924,189.312973 787.470398,183.030533 
	C791.491272,189.921936 789.313782,197.287216 790.112915,204.702805 
	C784.586304,204.702805 779.367859,204.702805 774.423645,204.702805 
	C774.737915,200.364594 775.045288,196.121490 775.188293,191.449646 
z"/>
<path fill="#000000" opacity="1.000000" stroke="none" 
	d="
M118.000000,180.971039 
	C117.464478,169.435593 116.928963,158.395142 116.388000,147.242523 
	C118.036865,147.242523 120.939171,147.242523 123.017982,147.242523 
	C120.960678,166.617798 121.938187,185.617065 124.960258,204.757996 
	C122.926521,204.757996 120.037804,204.757996 118.000000,204.757996 
	C118.000000,196.849945 118.000000,189.157990 118.000000,180.971039 
z"/>
<path fill="#000000" opacity="1.000000" stroke="none" 
	d="
M52.161163,197.402557 
	C53.145523,200.010269 53.988766,202.192810 54.952164,204.686340 
	C51.998184,204.686340 49.139553,204.686340 46.954937,204.686340 
	C46.758217,185.538849 48.506023,166.400833 44.253365,147.247116 
	C47.017078,147.247116 49.920708,147.247116 52.566349,147.247116 
	C50.011127,158.374329 50.773243,169.438873 51.737679,180.555939 
	C52.209702,185.996979 51.949081,191.501556 52.161163,197.402557 
z"/>
<path fill="#FFFFFF" opacity="1.000000" stroke="none" 
	d="
M298.999908,95.056572 
	C298.666534,90.681793 298.081848,86.769081 298.045929,82.851341 
	C297.925171,69.691040 297.523560,56.505402 298.172394,43.376064 
	C298.584686,35.033474 299.754852,26.488138 302.233521,18.548315 
	C305.374573,8.486642 309.112762,5.930012 314.379639,7.158985 
	C317.436096,7.872181 321.697662,9.522573 322.676147,11.885966 
	C325.524170,18.764889 327.740479,26.106171 328.814880,33.468925 
	C330.233368,43.189129 330.851379,53.101879 330.852814,62.932003 
	C330.854279,72.928749 329.426697,82.917534 329.116455,92.925041 
	C328.861603,101.145432 327.470551,109.012085 323.872131,116.388512 
	C319.554535,125.239128 310.661835,125.746902 305.114838,117.617371 
	C300.555695,110.935616 299.889130,103.200760 298.999908,95.056572 
z"/>
<path fill="#FFFFFF" opacity="1.000000" stroke="none" 
	d="
M577.021973,93.236496 
	C577.018982,102.094429 575.281677,110.034439 571.150269,117.426025 
	C566.910828,125.010963 558.677429,125.248283 553.547241,118.189072 
	C548.727600,111.557274 547.867188,103.882034 547.078674,96.231041 
	C546.086426,86.602432 544.639038,76.850815 545.232971,67.266617 
	C546.239624,51.023285 544.778015,34.468143 549.997620,18.622528 
	C552.853149,9.953456 556.273987,6.940475 562.769348,6.959910 
	C566.700684,6.971673 569.742432,8.771147 570.887085,12.154202 
	C573.286194,19.244822 575.732422,26.458708 576.818298,33.819794 
	C578.227661,43.373112 578.854492,53.119137 578.852600,62.782032 
	C578.850708,72.778786 577.692993,82.775322 577.021973,93.236496 
z"/>
<path fill="#FFFFFF" opacity="1.000000" stroke="none" 
	d="
M820.000000,156.193436 
	C820.000000,153.920654 820.000000,152.118591 820.000000,149.875137 
	C824.732971,151.535477 825.471191,155.090683 824.918884,158.851761 
	C824.207214,163.697174 827.839355,170.055405 820.000000,173.387589 
	C820.000000,167.428802 820.000000,162.046478 820.000000,156.193436 
z"/>
<path fill="#FFFFFF" opacity="1.000000" stroke="none" 
	d="
M698.000000,159.216187 
	C698.000000,162.154556 698.404724,164.720840 697.883240,167.082642 
	C697.387756,169.326614 695.923584,171.356705 694.885376,173.480835 
	C694.364441,173.271439 693.843445,173.062057 693.322449,172.852661 
	C693.322449,165.371872 693.322449,157.891068 693.322449,150.013504 
	C697.706787,151.499176 698.150513,154.955231 698.000000,159.216187 
z"/>
<path fill="#FFFFFF" opacity="1.000000" stroke="none" 
	d="
M104.322617,151.817734 
	C105.025017,157.924194 105.645668,163.739471 105.633308,169.553391 
	C105.630577,170.839325 103.389221,172.120483 101.322159,174.311859 
	C101.322159,165.360703 101.322159,157.869034 101.322159,149.820099 
	C102.321480,150.453690 103.167175,150.989868 104.322617,151.817734 
z"/>
<path fill="#FFFFFF" opacity="1.000000" stroke="none" 
	d="
M796.000000,174.908615 
	C796.333557,167.692627 796.620056,160.961990 797.043213,154.239975 
	C797.121033,153.003738 797.526794,151.662262 798.176331,150.614243 
	C799.513428,148.456940 801.124756,148.011765 802.311829,150.777542 
	C803.250916,152.965271 804.638000,155.231720 804.684937,157.486938 
	C804.971741,171.264786 805.002136,185.049942 804.901733,198.831085 
	C804.890808,200.320862 803.492310,201.800552 802.152039,204.436234 
	C795.399902,194.799408 797.521057,184.694687 796.000000,174.908615 
z"/>
<path fill="#FFFFFF" opacity="1.000000" stroke="none" 
	d="
M434.000000,174.908615 
	C434.333527,167.692612 434.619995,160.961990 435.043152,154.239960 
	C435.120972,153.003738 435.526733,151.662247 436.176239,150.614212 
	C437.513336,148.456711 439.124725,148.011978 440.311890,150.777573 
	C441.250946,152.965286 442.638184,155.231705 442.685120,157.486908 
	C442.971832,171.264786 443.002167,185.049927 442.901672,198.831085 
	C442.890778,200.320892 441.492310,201.800568 440.152008,204.436264 
	C433.400055,194.799393 435.521027,184.694702 434.000000,174.908615 
z"/>
<path fill="#FFFFFF" opacity="1.000000" stroke="none" 
	d="
M871.001587,180.815445 
	C871.415100,175.144882 871.830139,169.935989 872.245117,164.727081 
	C872.422607,164.684006 872.600037,164.640915 872.777527,164.597839 
	C873.914612,170.486618 875.051636,176.375397 876.485535,183.801392 
	C874.024292,182.668167 872.513733,181.972626 871.001587,180.815445 
z"/>
<path fill="#FFFFFF" opacity="1.000000" stroke="none" 
	d="
M72.978264,59.853973 
	C74.684074,51.096138 76.371132,42.777149 78.341385,33.061722 
	C81.774872,49.805874 84.914680,65.117836 88.116501,80.732239 
	C81.665794,80.732239 75.441216,80.732239 68.833351,80.732239 
	C70.232643,73.800697 71.596077,67.046761 72.978264,59.853973 
z"/>
<path fill="#FFFFFF" opacity="1.000000" stroke="none" 
	d="
M719.995972,181.072144 
	C718.618530,182.206238 717.242065,182.892258 714.773621,184.122498 
	C715.326538,176.722702 715.784424,170.594543 716.242310,164.466385 
	C716.386719,164.432678 716.531067,164.398972 716.675476,164.365280 
	C717.782654,169.784882 718.889771,175.204483 719.995972,181.072144 
z"/>
<path fill="#FFFFFF" opacity="1.000000" stroke="none" 
	d="
M851.000000,165.933517 
	C851.000000,160.465698 851.000000,155.487564 851.000000,150.509415 
	C851.345703,150.191696 851.691345,149.873978 852.037048,149.556259 
	C853.357361,150.886887 855.449463,152.016861 855.857117,153.584778 
	C857.228027,158.857819 858.704041,164.268646 858.842712,169.660110 
	C859.079163,178.853470 858.480408,188.081360 857.909058,197.274658 
	C857.732727,200.111481 856.478821,202.852676 852.446350,201.815567 
	C851.965881,190.057358 851.482910,178.240265 851.000000,165.933517 
z"/>
</svg>